<svg width="400" height="400" viewBox="0 0 400 400" fill="none" xmlns="http://www.w3.org/2000/svg">
<path d="M65.52 92.7521C65.5533 92.8207 65.5775 92.8933 65.592 92.9681L65.768 93.6081C65.8568 93.9609 65.9663 94.3082 66.096 94.6481C66.24 95.0481 66.392 95.5201 66.624 96.0241L66.976 96.8241L67.432 97.6881C67.5885 98.0055 67.7648 98.3128 67.96 98.6081C68.16 98.9121 68.336 99.2481 68.576 99.5681C70.8233 102.855 73.9702 105.424 77.64 106.968C78.7534 107.434 79.9077 107.796 81.088 108.048C82.3434 108.297 83.6122 108.473 84.888 108.576C87.504 108.832 90.336 108.976 93.048 110.064C95.7872 111.278 98.2159 113.097 100.152 115.384C102.201 117.557 103.858 120.069 105.048 122.808C105.586 124.13 105.915 125.529 106.024 126.952C106.117 128.312 106.031 129.678 105.768 131.016C105.233 133.468 104.511 135.875 103.608 138.216C102.838 140.247 102.265 142.347 101.896 144.488C101.597 146.254 101.665 148.062 102.096 149.8C102.422 151.111 103.013 152.342 103.832 153.416C104.35 154.098 104.983 154.683 105.704 155.144C106.192 155.456 106.504 155.576 106.504 155.592C106.226 155.482 105.959 155.348 105.704 155.192C104.966 154.741 104.316 154.161 103.784 153.48C102.936 152.406 102.323 151.166 101.984 149.84C101.531 148.082 101.447 146.249 101.736 144.456C102.101 142.303 102.669 140.19 103.432 138.144C104.32 135.801 105.032 133.394 105.56 130.944C105.809 129.626 105.889 128.282 105.8 126.944C105.693 125.55 105.366 124.181 104.832 122.888C103.65 120.177 102.01 117.69 99.984 115.536C98.0736 113.281 95.6778 111.487 92.976 110.288C90.328 109.208 87.52 109.064 84.896 108.8C83.6125 108.687 82.336 108.506 81.072 108.256C79.8684 108.014 78.69 107.661 77.552 107.2C73.8512 105.631 70.6896 103.014 68.456 99.6721C68.216 99.3521 68.032 99.0161 67.84 98.7041C67.6502 98.4015 67.4766 98.0891 67.32 97.7681L66.872 96.9041L66.528 96.1041C66.3306 95.6504 66.1596 95.1856 66.016 94.7121C65.8958 94.3692 65.797 94.0192 65.72 93.6641C65.656 93.3841 65.6 93.1681 65.568 93.0161C65.5454 92.9294 65.5293 92.8412 65.52 92.7521Z" fill="#455A64"/>
<path d="M81.7842 84.2721L81.9602 84.4321L82.4562 84.9121C82.6722 85.1281 82.9122 85.4161 83.2562 85.7121C83.6002 86.0081 83.8642 86.4481 84.1842 86.9281C84.9923 88.0799 85.656 89.3265 86.1602 90.6401C86.8447 92.3764 87.2524 94.2093 87.3682 96.0721C87.4225 97.1535 87.3824 98.2376 87.2482 99.3121C87.0845 100.476 86.8331 101.626 86.4962 102.752C85.8322 105.088 84.8962 107.488 84.1922 110.12C83.8463 111.462 83.6504 112.839 83.6082 114.224C83.577 115.669 83.7247 117.112 84.0482 118.52C84.7235 121.507 86.0756 124.298 88.0002 126.68C89.9304 129.041 92.3165 130.989 95.0162 132.408C97.5215 133.747 100.221 134.687 103.016 135.192C105.688 135.688 108.28 135.816 110.68 136.184C112.927 136.452 115.11 137.113 117.128 138.136C120.009 139.75 122.263 142.286 123.528 145.336C123.871 146.156 124.139 147.004 124.328 147.872C124.376 148.168 124.408 148.392 124.44 148.56C124.446 148.637 124.446 148.715 124.44 148.792C124.44 148.792 124.44 148.712 124.384 148.56C124.328 148.408 124.304 148.176 124.248 147.888C124.051 147.03 123.783 146.19 123.448 145.376C122.887 144.1 122.152 142.907 121.264 141.832C120.088 140.408 118.648 139.224 117.024 138.344C115.018 137.343 112.852 136.702 110.624 136.448C108.224 136.088 105.64 135.968 102.944 135.48C100.123 134.968 97.3973 134.024 94.8642 132.68C92.1314 131.246 89.7154 129.276 87.7602 126.888C85.8234 124.481 84.456 121.667 83.7602 118.656C83.4436 117.225 83.2986 115.761 83.3282 114.296C83.3714 112.892 83.57 111.497 83.9202 110.136C84.6002 107.48 85.5842 105.08 86.2562 102.76C86.6082 101.649 86.8756 100.512 87.0562 99.3601C87.1989 98.2998 87.2445 97.2287 87.1922 96.1601C87.0084 92.9076 85.9437 89.7662 84.1122 87.0721C83.8002 86.5841 83.4722 86.2001 83.2082 85.8401C82.9442 85.4801 82.6802 85.2161 82.4722 85.0401L82.0002 84.5361C81.9203 84.4548 81.848 84.3665 81.7842 84.2721Z" fill="#455A64"/>
<path d="M121.536 141.6C121.347 141.809 121.138 142 120.912 142.168C120.496 142.528 119.88 143.024 119.104 143.616C117.091 145.171 114.998 146.618 112.832 147.952C110.665 149.285 108.43 150.506 106.136 151.608C105.256 152.032 104.536 152.36 104.04 152.568C103.785 152.698 103.517 152.8 103.24 152.872C103.478 152.721 103.727 152.588 103.984 152.472L106.048 151.44C107.784 150.56 110.152 149.28 112.68 147.72C115.208 146.16 117.416 144.616 118.984 143.464L120.832 142.088C121.054 141.907 121.289 141.744 121.536 141.6V141.6Z" fill="#455A64"/>
<path d="M117.24 138.24C117.043 138.386 116.831 138.512 116.608 138.616L114.864 139.56C113.392 140.36 111.376 141.496 109.192 142.832C107.008 144.168 105.088 145.464 103.712 146.416L102.112 147.552C101.917 147.698 101.711 147.829 101.496 147.944C101.665 147.767 101.849 147.606 102.048 147.464C102.416 147.168 102.96 146.76 103.648 146.264C105 145.264 106.92 143.952 109.104 142.608C111.288 141.264 113.328 140.152 114.824 139.408C115.576 139.024 116.184 138.728 116.616 138.536C116.816 138.421 117.024 138.322 117.24 138.24V138.24Z" fill="#455A64"/>
<path d="M111.08 136.944C110.694 137.281 110.279 137.583 109.84 137.848C109.04 138.368 107.96 139.072 106.728 139.816C105.496 140.56 104.368 141.192 103.528 141.64C103.09 141.901 102.63 142.123 102.152 142.304C102.556 142.003 102.984 141.735 103.432 141.504L106.584 139.616L109.736 137.72C110.16 137.421 110.61 137.161 111.08 136.944V136.944Z" fill="#455A64"/>
<path d="M105.336 130.144C105.051 130.406 104.737 130.634 104.4 130.824L102.088 132.376L99.7924 133.976C99.4904 134.216 99.1632 134.423 98.8164 134.592C99.0659 134.287 99.3567 134.017 99.6804 133.792C100.24 133.344 101.032 132.76 101.936 132.144C102.84 131.528 103.68 131.008 104.336 130.656C104.646 130.443 104.983 130.271 105.336 130.144Z" fill="#455A64"/>
<path d="M104.88 124.08C104.88 124.12 104.2 124.488 103.104 125.12C102.008 125.752 100.512 126.672 98.936 127.776C97.36 128.88 95.984 129.984 95.016 130.8C94.5058 131.265 93.9718 131.703 93.416 132.112C93.5251 131.962 93.6483 131.823 93.784 131.696C94.032 131.44 94.408 131.088 94.88 130.656C97.3443 128.431 100.071 126.516 103 124.952C103.56 124.656 104.024 124.432 104.344 124.28C104.513 124.19 104.693 124.123 104.88 124.08V124.08Z" fill="#455A64"/>
<path d="M101.88 119.376C101.92 119.44 99.112 121.464 95.608 123.912C92.104 126.36 89.208 128.28 89.208 128.224C89.208 128.168 91.968 126.128 95.472 123.688C98.976 121.248 101.832 119.312 101.88 119.376Z" fill="#455A64"/>
<path d="M99.4884 114.072C99.3219 114.224 99.1395 114.359 98.9444 114.472C98.5444 114.744 98.0404 115.088 97.4324 115.488C96.1524 116.344 94.3924 117.544 92.4804 118.904C90.5684 120.264 88.8724 121.544 87.6804 122.472L86.2244 123.576C86.054 123.72 85.869 123.846 85.6724 123.952C85.8165 123.779 85.9803 123.623 86.1604 123.488C86.4804 123.208 86.9604 122.808 87.5604 122.32C88.7604 121.352 90.4404 120.048 92.3604 118.688C94.2804 117.328 96.0564 116.144 97.3604 115.328C98.0164 114.92 98.5524 114.6 98.9604 114.384C99.1252 114.262 99.3021 114.158 99.4884 114.072V114.072Z" fill="#455A64"/>
<path d="M94.552 111.136C94.6 111.192 92.216 112.92 89.24 114.992C86.264 117.064 83.808 118.68 83.76 118.624C83.712 118.568 86.104 116.832 89.08 114.768C92.056 112.704 94.512 111.072 94.552 111.136Z" fill="#455A64"/>
<path d="M89.3763 108.176C88.5286 109.034 87.6137 109.823 86.6403 110.536C85.7266 111.324 84.7559 112.043 83.7363 112.688C84.5874 111.821 85.502 111.019 86.4723 110.288C87.3874 109.514 88.358 108.808 89.3763 108.176V108.176Z" fill="#455A64"/>
<path d="M85.8883 100.744C85.5321 101.138 85.1412 101.5 84.7203 101.824C83.9763 102.456 82.9203 103.312 81.7203 104.224C80.5203 105.136 79.4083 105.888 78.5843 106.424C78.1556 106.735 77.6974 107.003 77.2163 107.224C77.6123 106.87 78.0349 106.546 78.4803 106.256C79.2803 105.68 80.3683 104.888 81.5603 104C82.7523 103.112 83.8243 102.28 84.6003 101.68C85.0039 101.334 85.4347 101.021 85.8883 100.744V100.744Z" fill="#455A64"/>
<path d="M87.392 95.688C87.2286 95.8453 87.0489 95.9847 86.856 96.104C86.512 96.36 85.992 96.712 85.352 97.136C84.064 97.992 82.256 99.136 80.216 100.336C78.176 101.536 76.28 102.512 74.896 103.2C74.208 103.544 73.64 103.816 73.248 104C73.0504 104.109 72.841 104.195 72.624 104.256C72.8049 104.124 72.9978 104.009 73.2 103.912L74.8 103.04C76.16 102.312 78 101.288 80.072 100.104C82.144 98.92 83.928 97.816 85.24 97L86.792 96.04C86.9779 95.9 87.1792 95.7819 87.392 95.688V95.688Z" fill="#455A64"/>
<path d="M84.9919 90.2881C84.8099 90.4508 84.6145 90.598 84.4079 90.7281C84.0239 91.0001 83.4639 91.3841 82.7599 91.8561C81.3599 92.7841 79.4079 94.0481 77.2239 95.4001C75.0399 96.7521 73.0479 97.9361 71.6239 98.7681C70.8959 99.1841 70.3039 99.5201 69.8879 99.7441C69.6781 99.8679 69.4587 99.9749 69.2319 100.064C69.4184 99.9068 69.6193 99.7675 69.8319 99.6481L71.5279 98.6001L77.1279 95.1681L82.7279 91.6961L84.4239 90.6401C84.6017 90.505 84.7919 90.3872 84.9919 90.2881V90.2881Z" fill="#455A64"/>
<path d="M295.488 249.768C295.448 249.808 294.856 249.216 293.704 248.232C293.128 247.744 292.416 247.152 291.552 246.52C290.578 245.804 289.551 245.162 288.48 244.6C287.863 244.283 287.221 244.015 286.56 243.8C285.868 243.547 285.137 243.417 284.4 243.416C284.036 243.416 283.677 243.501 283.352 243.664C283.034 243.829 282.78 244.097 282.632 244.424C282.477 244.782 282.403 245.17 282.416 245.56C282.423 245.981 282.477 246.399 282.576 246.808C282.791 247.675 283.102 248.515 283.504 249.312C283.926 250.159 284.399 250.979 284.92 251.768C287.161 255.077 289.966 257.967 293.208 260.304C293.974 260.853 294.776 261.35 295.608 261.792C296.394 262.222 297.226 262.56 298.088 262.8C298.493 262.913 298.909 262.98 299.328 263C299.716 263.022 300.104 262.96 300.464 262.816C300.802 262.682 301.085 262.436 301.264 262.12C301.435 261.799 301.531 261.443 301.544 261.08C301.568 260.341 301.459 259.605 301.224 258.904C301.007 258.237 300.739 257.587 300.424 256.96C299.89 255.874 299.278 254.829 298.592 253.832C297.984 252.952 297.424 252.232 296.944 251.632C296 250.456 295.424 249.84 295.464 249.8C295.504 249.76 295.64 249.92 295.936 250.2C296.232 250.48 296.64 250.896 297.144 251.464C297.764 252.151 298.349 252.87 298.896 253.616C299.629 254.608 300.282 255.657 300.848 256.752C301.174 257.399 301.454 258.067 301.688 258.752C301.957 259.523 302.084 260.336 302.064 261.152C302.056 261.602 301.941 262.043 301.728 262.44C301.498 262.865 301.132 263.2 300.688 263.392C300.248 263.576 299.773 263.661 299.296 263.64C298.829 263.626 298.365 263.559 297.912 263.44C297.004 263.192 296.127 262.844 295.296 262.4C294.429 261.924 293.595 261.389 292.8 260.8C289.477 258.429 286.612 255.475 284.344 252.08C283.805 251.271 283.322 250.426 282.896 249.552C282.481 248.708 282.162 247.819 281.944 246.904C281.835 246.451 281.782 245.986 281.784 245.52C281.771 245.043 281.87 244.569 282.072 244.136C282.278 243.697 282.624 243.339 283.056 243.12C283.46 242.923 283.903 242.822 284.352 242.824C285.157 242.832 285.953 242.984 286.704 243.272C287.382 243.524 288.04 243.826 288.672 244.176C289.749 244.773 290.777 245.455 291.744 246.216C292.6 246.888 293.296 247.504 293.848 248.032C294.4 248.56 294.808 248.984 295.072 249.28C295.336 249.576 295.504 249.752 295.488 249.768Z" fill="#455A64"/>
<path d="M287.816 251.688C287.864 251.688 287.632 252.488 287.328 253.912C287.176 254.632 287.008 255.512 286.872 256.536C286.717 257.695 286.653 258.863 286.68 260.032C286.696 260.706 286.765 261.377 286.888 262.04C287.004 262.744 287.246 263.421 287.6 264.04C287.781 264.343 288.027 264.603 288.32 264.8C288.612 264.99 288.956 265.085 289.304 265.072C289.685 265.061 290.059 264.969 290.4 264.8C290.762 264.615 291.101 264.386 291.408 264.12C292.062 263.554 292.65 262.915 293.16 262.216C293.7 261.479 294.189 260.707 294.624 259.904C296.442 256.493 297.621 252.779 298.104 248.944C298.208 248.039 298.254 247.127 298.24 246.216C298.227 245.35 298.117 244.489 297.912 243.648C297.808 243.255 297.663 242.875 297.48 242.512C297.311 242.176 297.071 241.882 296.776 241.648C296.501 241.433 296.165 241.31 295.816 241.296C295.464 241.289 295.114 241.36 294.792 241.504C294.147 241.804 293.559 242.216 293.056 242.72C292.574 243.194 292.13 243.705 291.728 244.248C291.021 245.18 290.39 246.167 289.84 247.2C289.36 248.112 288.992 248.928 288.704 249.6C288.128 250.952 287.864 251.72 287.816 251.704C287.823 251.504 287.864 251.307 287.936 251.12C288.04 250.744 288.208 250.2 288.456 249.52C288.704 248.84 289.048 247.992 289.504 247.048C290.022 245.972 290.63 244.942 291.32 243.968C291.723 243.396 292.175 242.86 292.672 242.368C293.21 241.801 293.847 241.337 294.552 241C294.947 240.821 295.375 240.731 295.808 240.736C296.276 240.748 296.729 240.904 297.104 241.184C297.469 241.467 297.769 241.824 297.984 242.232C298.197 242.633 298.364 243.057 298.48 243.496C298.708 244.38 298.831 245.287 298.848 246.2C298.876 247.143 298.836 248.087 298.728 249.024C298.262 252.949 297.054 256.75 295.168 260.224C294.716 261.059 294.206 261.861 293.64 262.624C293.099 263.359 292.474 264.027 291.776 264.616C291.43 264.907 291.052 265.156 290.648 265.36C290.237 265.574 289.783 265.694 289.32 265.712C288.855 265.723 288.397 265.592 288.008 265.336C287.651 265.087 287.351 264.765 287.128 264.392C286.749 263.71 286.497 262.964 286.384 262.192C286.265 261.502 286.206 260.804 286.208 260.104C286.203 258.908 286.302 257.714 286.504 256.536C286.649 255.652 286.838 254.776 287.072 253.912C287.264 253.2 287.448 252.656 287.576 252.312C287.617 252.091 287.699 251.88 287.816 251.688V251.688Z" fill="#455A64"/>
<path d="M290.44 248C290.44 248.056 289.64 248.264 288.288 248.76C287.6 249.008 286.768 249.328 285.816 249.752C284.75 250.23 283.722 250.792 282.744 251.432C282.177 251.796 281.641 252.208 281.144 252.664C280.606 253.13 280.158 253.691 279.824 254.32C279.661 254.632 279.568 254.976 279.552 255.328C279.545 255.679 279.649 256.023 279.848 256.312C280.055 256.619 280.329 256.876 280.648 257.064C280.997 257.272 281.367 257.441 281.752 257.568C282.58 257.821 283.433 257.982 284.296 258.048C285.207 258.108 286.121 258.108 287.032 258.048C288.958 257.935 290.868 257.637 292.736 257.16C294.609 256.693 296.433 256.05 298.184 255.24C299.012 254.852 299.813 254.411 300.584 253.92C301.314 253.467 301.988 252.93 302.592 252.32C302.877 252.029 303.124 251.704 303.328 251.352C303.527 251.034 303.653 250.676 303.696 250.304C303.733 249.958 303.663 249.609 303.496 249.304C303.316 248.989 303.071 248.716 302.776 248.504C302.179 248.123 301.518 247.852 300.824 247.704C300.17 247.542 299.504 247.433 298.832 247.376C297.666 247.285 296.494 247.285 295.328 247.376C294.296 247.456 293.408 247.568 292.68 247.672C291.24 247.896 290.448 248.08 290.432 248.024C290.608 247.929 290.796 247.862 290.992 247.824C291.36 247.712 291.912 247.568 292.64 247.416C293.368 247.264 294.24 247.12 295.296 247.008C296.484 246.882 297.68 246.855 298.872 246.928C299.57 246.97 300.264 247.072 300.944 247.232C301.711 247.387 302.441 247.685 303.096 248.112C303.458 248.351 303.761 248.668 303.984 249.04C304.221 249.443 304.325 249.911 304.28 250.376C304.239 250.837 304.094 251.283 303.856 251.68C303.631 252.069 303.363 252.431 303.056 252.76C302.423 253.422 301.714 254.007 300.944 254.504C300.155 255.02 299.332 255.482 298.48 255.888C296.682 256.726 294.806 257.388 292.88 257.864C290.97 258.351 289.017 258.649 287.048 258.752C286.107 258.804 285.163 258.788 284.224 258.704C283.313 258.632 282.413 258.452 281.544 258.168C281.113 258.028 280.699 257.837 280.312 257.6C279.919 257.359 279.581 257.037 279.32 256.656C279.066 256.267 278.938 255.809 278.952 255.344C278.972 254.908 279.09 254.481 279.296 254.096C279.674 253.414 280.173 252.807 280.768 252.304C281.297 251.843 281.861 251.426 282.456 251.056C283.477 250.435 284.547 249.899 285.656 249.456C286.486 249.115 287.332 248.816 288.192 248.56C288.896 248.352 289.456 248.216 289.832 248.136C290.026 248.058 290.232 248.012 290.44 248V248Z" fill="#455A64"/>
<path d="M294.472 252.616C294.575 253.027 294.553 253.46 294.41 253.859C294.267 254.258 294.009 254.606 293.668 254.859C293.328 255.111 292.92 255.257 292.496 255.277C292.073 255.298 291.653 255.193 291.289 254.974C290.925 254.756 290.635 254.435 290.453 254.052C290.272 253.668 290.209 253.24 290.271 252.82C290.334 252.401 290.519 252.009 290.804 251.695C291.089 251.381 291.461 251.159 291.872 251.056C292.424 250.92 293.006 251.008 293.493 251.3C293.98 251.593 294.332 252.065 294.472 252.616V252.616Z" fill="#455A64"/>
<path d="M338.176 215.888L337.936 215.776L337.24 215.424L334.56 214.032L324.712 208.856H324.8L294.464 220.448L294.192 220.552L294.272 220.272L295.2 216.92C297.32 209.272 299.328 202.032 301.088 195.664V195.616L317.888 183.024L322.688 179.472L323.96 178.536L324.288 178.304C324.358 178.245 324.398 178.221 324.408 178.232L324.304 178.32L323.984 178.576L322.736 179.536L318 183.144L301.248 195.824L301.296 195.752C299.536 202.152 297.544 209.352 295.432 217.024C295.112 218.168 294.8 219.312 294.504 220.376L294.312 220.2L324.712 208.688H324.76L334.56 213.944L337.208 215.376L337.896 215.76L338.176 215.888Z" fill="#407BFF"/>
<path d="M298.36 220.08L296.544 220.616L295.96 222.416L294.888 220.856H292.992L294.144 219.352L293.56 217.552L295.344 218.184L296.872 217.072L296.824 218.968L298.36 220.08Z" fill="#407BFF"/>
<path d="M303.6 195.08L302.456 195.496L302.144 196.68L301.392 195.72L300.168 195.792L300.856 194.776L300.408 193.64L301.584 193.976L302.528 193.2L302.568 194.424L303.6 195.08Z" fill="#407BFF"/>
<path d="M326.568 177.456L325.736 178.712L326.288 180.104L324.84 179.696L323.688 180.656L323.624 179.152L322.36 178.352L323.768 177.832L324.136 176.376L325.072 177.552L326.568 177.456Z" fill="#407BFF"/>
<path d="M340.016 214.304L339.176 215.56L339.736 216.952L338.288 216.544L337.128 217.504L337.072 216L335.8 215.2L337.208 214.68L337.584 213.224L338.512 214.4L340.016 214.304Z" fill="#407BFF"/>
<path d="M325.904 208.136L325.368 208.936L325.728 209.824L324.8 209.56L324.064 210.176L324.032 209.216L323.216 208.704L324.12 208.368L324.352 207.44L324.952 208.2L325.904 208.136Z" fill="#407BFF"/>
<path d="M247.576 80.9824C248.942 72.6101 243.263 64.7153 234.891 63.3487C226.518 61.9822 218.624 67.6615 217.257 76.0338C215.89 84.4061 221.57 92.301 229.942 93.6675C238.314 95.0341 246.209 89.3547 247.576 80.9824Z" fill="#407BFF"/>
<g opacity="0.3">
<path d="M230.4 83.3121C230.4 83.8073 230.253 84.2915 229.978 84.7033C229.703 85.115 229.312 85.436 228.854 85.6255C228.397 85.815 227.893 85.8646 227.408 85.768C226.922 85.6714 226.476 85.4329 226.126 85.0827C225.775 84.7325 225.537 84.2863 225.44 83.8006C225.344 83.3149 225.393 82.8114 225.583 82.3539C225.772 81.8963 226.093 81.5052 226.505 81.2301C226.917 80.955 227.401 80.8081 227.896 80.8081C228.56 80.8081 229.197 81.0719 229.667 81.5415C230.136 82.0111 230.4 82.648 230.4 83.3121V83.3121Z" fill="white"/>
</g>
<g opacity="0.3">
<path d="M226.88 76.08C226.88 76.368 226.795 76.6495 226.635 76.8889C226.475 77.1284 226.247 77.315 225.981 77.4252C225.715 77.5354 225.423 77.5642 225.14 77.5081C224.858 77.4519 224.598 77.3132 224.395 77.1096C224.191 76.9059 224.052 76.6465 223.996 76.3641C223.94 76.0816 223.969 75.7889 224.079 75.5228C224.189 75.2568 224.376 75.0294 224.615 74.8694C224.855 74.7094 225.136 74.624 225.424 74.624C225.81 74.624 226.181 74.7774 226.454 75.0505C226.727 75.3235 226.88 75.6939 226.88 76.08V76.08Z" fill="white"/>
</g>
<path d="M217.528 82.256C217.6 82.52 204.384 95.2 207.792 97.904C211.2 100.608 225.528 93.672 237.744 83.808C249.96 73.944 261.112 61.96 258.056 58.792C255 55.624 239.744 65.008 239.744 65.008L241.6 66.168C241.6 66.168 250.824 60.248 253.744 62.544C256.664 64.84 248.344 73.824 236.6 82.4C224.856 90.976 213.504 96.992 211.744 94.64C209.984 92.288 218.296 84.456 218.296 84.456L217.528 82.256Z" fill="#407BFF"/>
<g opacity="0.3">
<path d="M217.528 82.256C217.6 82.52 204.384 95.2 207.792 97.904C211.2 100.608 225.528 93.672 237.744 83.808C249.96 73.944 261.112 61.96 258.056 58.792C255 55.624 239.744 65.008 239.744 65.008L241.6 66.168C241.6 66.168 250.824 60.248 253.744 62.544C256.664 64.84 248.344 73.824 236.6 82.4C224.856 90.976 213.504 96.992 211.744 94.64C209.984 92.288 218.296 84.456 218.296 84.456L217.528 82.256Z" fill="black"/>
</g>
<g opacity="0.3">
<path d="M224 67.696C224.12 67.848 223.08 68.728 221.904 70.504C220.341 72.7805 219.479 75.4646 219.423 78.2253C219.368 80.9861 220.122 83.7026 221.592 86.04C222.704 87.856 223.704 88.784 223.576 88.928C223.448 89.072 222.264 88.32 220.896 86.528C220.104 85.4619 219.476 84.2836 219.032 83.032C217.897 79.9199 217.966 76.4962 219.224 73.432C219.716 72.1998 220.39 71.0483 221.224 70.016C222.632 68.256 223.896 67.592 224 67.696Z" fill="white"/>
</g>
<path d="M255.664 92.056C255.706 90.2922 256.27 88.5803 257.284 87.1369C258.299 85.6935 259.719 84.5834 261.364 83.947C263.01 83.3106 264.807 83.1765 266.529 83.5617C268.251 83.9469 269.82 84.834 271.037 86.1109C272.255 87.3878 273.066 88.997 273.369 90.7352C273.672 92.4733 273.453 94.2622 272.739 95.8757C272.025 97.4892 270.849 98.8547 269.359 99.7996C267.869 100.744 266.132 101.226 264.368 101.184C262.004 101.127 259.758 100.134 258.126 98.4222C256.494 96.7105 255.608 94.4206 255.664 92.056V92.056Z" fill="#407BFF"/>
<g opacity="0.4">
<path d="M267.488 88.8561C267.495 88.5679 267.587 88.2881 267.752 88.0521C267.918 87.8162 268.15 87.6347 268.419 87.5307C268.688 87.4267 268.981 87.4048 269.263 87.4679C269.544 87.5309 269.8 87.6761 269.999 87.8849C270.197 88.0937 270.33 88.3569 270.379 88.6409C270.428 88.925 270.391 89.2172 270.274 89.4806C270.157 89.744 269.964 89.9666 269.72 90.1203C269.477 90.2741 269.193 90.3519 268.904 90.3441C268.714 90.3399 268.525 90.2981 268.351 90.2209C268.176 90.1438 268.018 90.0329 267.887 89.8946C267.755 89.7563 267.652 89.5934 267.584 89.4151C267.516 89.2369 267.483 89.0469 267.488 88.8561Z" fill="black"/>
</g>
<g opacity="0.4">
<path d="M270.4 92.2481C270.405 92.0795 270.46 91.9162 270.559 91.7792C270.657 91.6421 270.794 91.5375 270.952 91.4787C271.11 91.4198 271.282 91.4095 271.446 91.4489C271.61 91.4884 271.759 91.5759 271.873 91.7001C271.987 91.8244 272.061 91.9799 272.086 92.1467C272.111 92.3134 272.086 92.4839 272.014 92.6364C271.942 92.7888 271.826 92.9163 271.681 93.0024C271.536 93.0886 271.368 93.1295 271.2 93.1201C270.98 93.1057 270.774 93.007 270.625 92.8446C270.476 92.6821 270.395 92.4685 270.4 92.2481V92.2481Z" fill="black"/>
</g>
<g opacity="0.4">
<path d="M269.256 94.848C269.34 94.8501 269.419 94.8847 269.477 94.9445C269.536 95.0043 269.568 95.0845 269.568 95.168C269.567 95.209 269.558 95.2494 269.541 95.2868C269.525 95.3243 269.501 95.3581 269.471 95.3863C269.442 95.4146 269.407 95.4367 269.368 95.4514C269.33 95.4661 269.289 95.4731 269.248 95.472C269.207 95.4721 269.166 95.4637 269.128 95.4475C269.09 95.4312 269.056 95.4074 269.027 95.3774C268.999 95.3475 268.977 95.312 268.963 95.2733C268.948 95.2345 268.942 95.1933 268.944 95.152C268.946 95.0707 268.98 94.9934 269.038 94.9366C269.097 94.8798 269.175 94.848 269.256 94.848V94.848Z" fill="black"/>
</g>
<path d="M292.496 158.6C292.416 158.6 292.36 147.304 292.36 133.376C292.36 119.448 292.416 108.152 292.496 108.152C292.576 108.152 292.632 119.44 292.632 133.376C292.632 147.312 292.568 158.6 292.496 158.6Z" fill="#263238"/>
<path d="M294 108.584C293.357 107.652 292.785 106.674 292.288 105.656H292.528V105.72C292.115 106.801 291.626 107.852 291.064 108.864C291.379 107.75 291.786 106.663 292.28 105.616V105.552L292.392 105.296L292.52 105.536C293.094 106.511 293.589 107.53 294 108.584Z" fill="#263238"/>
<path d="M292.216 102.192C292.168 102.248 291.752 101.976 291.416 101.472C291.08 100.968 291 100.48 291.072 100.464C291.144 100.448 291.336 100.864 291.64 101.328C291.944 101.792 292.264 102.136 292.216 102.192Z" fill="#263238"/>
<path d="M291.424 103.648C291.576 103.028 291.79 102.425 292.064 101.848C292.247 101.237 292.493 100.647 292.8 100.088C292.751 100.731 292.586 101.36 292.312 101.944C292.124 102.562 291.823 103.139 291.424 103.648V103.648Z" fill="#263238"/>
<path d="M288.88 114.792C289.063 114.283 289.218 113.765 289.344 113.24C289.372 112.707 289.372 112.173 289.344 111.64C289.628 112.146 289.711 112.74 289.576 113.304C289.537 113.869 289.289 114.4 288.88 114.792Z" fill="#263238"/>
<path d="M289.376 112.688C289.376 112.688 289.312 112.904 288.992 112.984C288.802 113.024 288.605 112.99 288.44 112.888C288.343 112.818 288.262 112.727 288.205 112.622C288.147 112.516 288.114 112.399 288.108 112.279C288.102 112.16 288.123 112.04 288.169 111.929C288.216 111.818 288.286 111.72 288.376 111.64C288.534 111.528 288.727 111.477 288.92 111.496C289.248 111.496 289.36 111.736 289.328 111.752C289.296 111.768 289.16 111.672 288.912 111.688C288.837 111.687 288.763 111.701 288.695 111.73C288.626 111.759 288.564 111.802 288.513 111.856C288.462 111.91 288.422 111.974 288.397 112.045C288.372 112.115 288.362 112.19 288.368 112.264C288.371 112.339 288.389 112.412 288.421 112.479C288.453 112.547 288.499 112.607 288.555 112.657C288.611 112.706 288.677 112.743 288.748 112.767C288.819 112.79 288.894 112.799 288.968 112.792C289.216 112.8 289.344 112.656 289.376 112.688Z" fill="#263238"/>
<path d="M331.768 155.016C331.768 155.088 322.104 155.152 310.168 155.152C298.232 155.152 288.568 155.088 288.568 155.016C288.568 154.944 298.224 154.88 310.168 154.88C322.112 154.88 331.768 154.944 331.768 155.016Z" fill="#263238"/>
<path d="M332.208 154.96C331.582 154.862 330.972 154.674 330.4 154.4C329.806 154.213 329.24 153.944 328.72 153.6C329.337 153.7 329.936 153.892 330.496 154.168C331.102 154.347 331.679 154.614 332.208 154.96V154.96Z" fill="#263238"/>
<path d="M332.68 155.12C331.769 155.638 330.772 155.988 329.736 156.152C330.177 155.864 330.66 155.648 331.168 155.512C331.646 155.294 332.157 155.162 332.68 155.12V155.12Z" fill="#263238"/>
<path d="M290.464 156.384C290.614 156.487 290.741 156.62 290.837 156.774C290.933 156.928 290.997 157.1 291.024 157.28C291.12 157.671 291.089 158.083 290.936 158.456C290.848 158.686 290.699 158.888 290.504 159.04C290.385 159.117 290.246 159.158 290.104 159.158C289.962 159.158 289.823 159.117 289.704 159.04C289.501 158.889 289.337 158.691 289.228 158.462C289.119 158.233 289.069 157.981 289.08 157.728C289.074 157.524 289.115 157.32 289.198 157.134C289.281 156.947 289.405 156.781 289.56 156.648C289.664 156.558 289.785 156.49 289.915 156.447C290.046 156.405 290.183 156.389 290.32 156.4C290.512 156.4 290.6 156.488 290.592 156.496C290.584 156.504 290.488 156.496 290.32 156.496C290.083 156.517 289.86 156.619 289.688 156.784C289.565 156.904 289.469 157.048 289.407 157.209C289.345 157.369 289.318 157.541 289.328 157.712C289.323 157.921 289.367 158.128 289.456 158.316C289.545 158.505 289.676 158.671 289.84 158.8C289.919 158.851 290.011 158.878 290.104 158.878C290.198 158.878 290.289 158.851 290.368 158.8C290.527 158.679 290.651 158.519 290.728 158.336C290.869 158.009 290.913 157.648 290.856 157.296C290.773 156.974 290.641 156.666 290.464 156.384V156.384Z" fill="#263238"/>
<path d="M325.6 156.952C325.6 156.952 325.752 156.864 325.96 157.04C326.022 157.093 326.07 157.16 326.102 157.235C326.134 157.31 326.148 157.391 326.144 157.472C326.124 157.68 326.034 157.874 325.888 158.024C325.584 158.36 325.024 158.488 324.768 158.896C324.709 159.003 324.678 159.122 324.678 159.244C324.678 159.366 324.709 159.485 324.768 159.592C324.835 159.704 324.932 159.794 325.048 159.852C325.164 159.91 325.295 159.934 325.424 159.92C325.555 159.909 325.679 159.859 325.78 159.776C325.881 159.693 325.955 159.582 325.992 159.456C326.031 159.339 326.038 159.215 326.015 159.094C325.991 158.974 325.936 158.861 325.856 158.768C325.695 158.581 325.499 158.426 325.28 158.312C325.161 158.268 325.053 158.197 324.964 158.106C324.876 158.014 324.809 157.905 324.768 157.784C324.744 157.68 324.744 157.572 324.768 157.469C324.791 157.365 324.838 157.267 324.904 157.184C324.999 157.064 325.123 156.97 325.264 156.912C325.496 156.832 325.632 156.848 325.64 156.864C325.648 156.88 325.512 156.864 325.312 157.008C325.196 157.071 325.097 157.162 325.024 157.272C324.978 157.339 324.948 157.416 324.935 157.496C324.923 157.576 324.929 157.658 324.952 157.736C325.032 158.08 325.672 158.128 326.048 158.616C326.156 158.742 326.231 158.893 326.264 159.055C326.298 159.218 326.289 159.386 326.24 159.544C326.185 159.718 326.08 159.872 325.937 159.986C325.795 160.1 325.622 160.169 325.44 160.184C325.26 160.203 325.079 160.171 324.917 160.09C324.756 160.009 324.62 159.883 324.528 159.728C324.445 159.582 324.402 159.416 324.402 159.248C324.402 159.08 324.445 158.914 324.528 158.768C324.691 158.539 324.912 158.357 325.168 158.24C325.365 158.144 325.55 158.026 325.72 157.888C325.847 157.776 325.932 157.623 325.96 157.456C325.966 157.395 325.961 157.333 325.943 157.274C325.925 157.214 325.895 157.16 325.856 157.112C325.76 156.952 325.6 156.976 325.6 156.952Z" fill="#263238"/>
<path d="M325.488 155.944C325.304 155.155 325.304 154.333 325.488 153.544C325.672 154.333 325.672 155.155 325.488 155.944V155.944Z" fill="#263238"/>
<path d="M337.032 155.064C336.796 155.148 336.546 155.187 336.296 155.176L335.496 155.224C335.437 155.244 335.372 155.244 335.312 155.224C335.273 155.199 335.243 155.162 335.226 155.119C335.209 155.076 335.205 155.029 335.216 154.984C335.244 154.883 335.303 154.794 335.384 154.728L335.736 154.36C335.976 154.174 336.134 153.901 336.176 153.6C336.183 153.492 336.154 153.384 336.093 153.294C336.032 153.205 335.943 153.138 335.84 153.104C335.678 153.084 335.513 153.115 335.368 153.192C335.248 153.24 335.184 153.272 335.168 153.256C335.152 153.24 335.208 153.184 335.312 153.104C335.467 152.971 335.668 152.902 335.872 152.912C336.032 152.944 336.175 153.032 336.276 153.159C336.377 153.286 336.429 153.446 336.424 153.608C336.395 153.971 336.222 154.308 335.944 154.544L335.576 154.904C335.512 154.96 335.464 155.016 335.464 155.04H335.512H336.312C336.552 155.008 336.795 155.016 337.032 155.064V155.064Z" fill="#263238"/>
<path d="M298.24 155.016C298.24 155.016 298.24 154.744 298.24 154.272C298.24 153.8 298.24 153.104 298.2 152.296C298.2 150.616 298.152 148.296 298.144 145.64L298.272 145.776H295.768L295.904 145.64V148.416C295.904 149.304 295.904 150.152 295.904 150.952C295.904 152.552 295.904 153.912 295.864 155.008L295.784 154.928L297.608 154.968C298.04 154.968 298.28 154.968 298.288 155.008C298.078 155.022 297.867 155.022 297.656 155.008L295.784 155.048H295.704V154.968C295.704 153.872 295.704 152.496 295.704 150.912C295.704 150.112 295.704 149.264 295.704 148.376V145.6L295.84 145.464H298.4V145.592C298.4 148.304 298.4 150.664 298.336 152.336C298.336 153.136 298.336 153.792 298.336 154.288C298.325 154.533 298.293 154.776 298.24 155.016V155.016Z" fill="#263238"/>
<path d="M322.12 155.016C322.111 154.92 322.111 154.824 322.12 154.728C322.12 154.52 322.12 154.264 322.12 153.928C322.12 153.208 322.12 152.232 322.08 151.024C322.08 148.576 322.032 145.184 322.024 141.336L322.16 141.464H319.648L319.784 141.336V143.448C319.784 144.144 319.784 144.824 319.784 145.488C319.784 146.824 319.784 148.08 319.784 149.256C319.784 151.576 319.744 153.544 319.736 154.984L319.664 154.912H321.496H321.992H322.176C321.966 154.927 321.754 154.927 321.544 154.912L319.664 154.952H319.592V154.88C319.592 153.44 319.592 151.472 319.544 149.152C319.544 147.976 319.544 146.752 319.544 145.384C319.544 144.72 319.544 144.04 319.544 143.344V141.232L319.68 141.096H322.32V141.232C322.32 145.136 322.32 148.576 322.264 151.016C322.264 152.208 322.264 153.176 322.224 153.888C322.224 154.192 322.224 154.448 322.224 154.688C322.224 154.928 322.12 155.024 322.12 155.016Z" fill="#263238"/>
<path d="M304.28 155.016C304.271 154.899 304.271 154.781 304.28 154.664C304.28 154.408 304.28 154.08 304.28 153.672C304.28 152.8 304.28 151.576 304.24 150.056C304.24 146.992 304.24 142.76 304.184 137.984L304.32 138.12H301.808C302.08 137.848 301.88 138.048 301.944 137.992V140.696C301.944 141.584 301.944 142.448 301.944 143.296C301.944 144.984 301.944 146.576 301.944 148.04C301.944 150.952 301.904 153.352 301.888 155.016L301.824 154.952H303.672H304.16H304.336H304.184H303.704H301.824H301.76V154.888C301.76 153.224 301.76 150.824 301.712 147.912C301.712 146.448 301.712 144.856 301.712 143.168C301.712 142.32 301.712 141.456 301.712 140.568V137.864C301.776 137.8 301.576 137.992 301.848 137.72H304.488V137.848C304.488 142.648 304.448 146.928 304.432 150.016C304.432 151.52 304.432 152.736 304.392 153.6C304.392 154 304.392 154.32 304.392 154.56C304.392 154.8 304.28 155.024 304.28 155.016Z" fill="#263238"/>
<path d="M310.184 154.96C310.181 154.915 310.181 154.869 310.184 154.824V154.4C310.184 154.032 310.184 153.52 310.184 152.872C310.184 151.536 310.184 149.624 310.144 147.272C310.144 142.52 310.104 135.952 310.08 128.576L310.216 128.712H307.68L307.808 128.584V137.04C307.808 139.712 307.808 142.224 307.808 144.512C307.808 149.056 307.76 152.696 307.744 154.912L307.696 154.864H309.544H310.2C310.2 154.864 310.152 154.864 310.048 154.864H309.6H307.72H307.664V154.808C307.664 152.552 307.664 148.912 307.608 144.408C307.608 142.12 307.608 139.608 307.608 136.936C307.608 135.592 307.608 134.216 307.608 132.8V128.48C307.664 128.416 307.472 128.608 307.744 128.336H310.384V128.472C310.384 135.88 310.384 142.488 310.328 147.264C310.328 149.616 310.328 151.52 310.288 152.864C310.288 153.504 310.288 154.008 310.288 154.368V154.752C310.192 154.928 310.192 154.968 310.184 154.96Z" fill="#263238"/>
<path d="M316.24 154.96C316.24 154.96 316.24 154.88 316.24 154.728C316.24 154.576 316.24 154.336 316.24 154.048C316.24 153.448 316.24 152.576 316.24 151.464C316.24 149.216 316.24 145.968 316.2 141.96C316.2 133.96 316.2 122.816 316.144 110.416L316.28 110.552H313.768C314.032 110.288 313.848 110.488 313.904 110.432V118.088C313.904 120.584 313.904 123.016 313.904 125.36C313.904 130.056 313.904 134.408 313.904 138.304C313.904 146.064 313.848 151.96 313.832 154.96H315.712H316.344C316.344 154.96 316.296 154.96 316.192 154.96H315.736H313.832H313.792V154.912C313.792 151.912 313.752 146.016 313.728 138.256C313.728 134.36 313.728 130.008 313.728 125.312C313.728 122.968 313.728 120.512 313.728 118.04V110.4C313.792 110.336 313.592 110.52 313.864 110.248H316.504V110.4C316.504 122.84 316.504 133.984 316.448 142.04C316.448 146.04 316.448 149.24 316.408 151.512C316.408 152.616 316.408 153.472 316.408 154.072C316.408 154.352 316.408 154.568 316.408 154.728C316.408 154.888 316.24 154.968 316.24 154.96Z" fill="#263238"/>
<path d="M47.6802 157.6L49.8162 195.064L112.496 191.488L47.6802 157.6ZM58.1522 172.136L85.1122 186.536L59.0562 188L58.1522 172.136Z" fill="#407BFF"/>
<path d="M53.9043 160.872C53.7045 161.698 53.3693 162.484 52.9123 163.2C52.575 163.985 52.1071 164.707 51.5283 165.336C51.7242 164.502 52.0595 163.707 52.5203 162.984C52.862 162.209 53.3296 161.495 53.9043 160.872V160.872Z" fill="#263238"/>
<path d="M63.5202 165.84C63.32 166.655 62.9847 167.431 62.5282 168.136C62.197 168.902 61.734 169.603 61.1602 170.208C61.3537 169.392 61.6866 168.615 62.1442 167.912C62.4738 167.144 62.94 166.442 63.5202 165.84V165.84Z" fill="#263238"/>
<path d="M73.128 170.808C72.8491 171.595 72.4378 172.328 71.912 172.976C71.5013 173.709 70.9589 174.36 70.312 174.896C70.5898 174.106 71.0011 173.37 71.528 172.72C71.9431 171.992 72.4849 171.345 73.128 170.808V170.808Z" fill="#263238"/>
<path d="M82.5841 176C82.3143 176.793 81.9022 177.531 81.3681 178.176C80.9478 178.902 80.4067 179.552 79.7681 180.096C80.0379 179.303 80.4499 178.565 80.9841 177.92C81.4043 177.194 81.9454 176.544 82.5841 176V176Z" fill="#263238"/>
<path d="M92.4564 181.064C92.2223 181.892 91.849 182.674 91.3524 183.376C90.9813 184.147 90.4838 184.85 89.8804 185.456C90.4744 183.852 91.3464 182.365 92.4564 181.064V181.064Z" fill="#263238"/>
<path d="M102.704 186.4C102.515 187.184 102.184 187.927 101.728 188.592C101.395 189.326 100.935 189.995 100.368 190.568C100.561 189.782 100.895 189.036 101.352 188.368C101.677 187.634 102.135 186.966 102.704 186.4V186.4Z" fill="#263238"/>
<path d="M56.904 162.44C57.008 162.504 56.832 163.048 56.504 163.672C56.176 164.296 55.824 164.736 55.704 164.68C55.584 164.624 55.776 164.072 56.104 163.456C56.432 162.84 56.8 162.4 56.904 162.44Z" fill="#263238"/>
<path d="M60.0483 164C60.1603 164.056 59.9763 164.608 59.6483 165.224C59.3203 165.84 58.9763 166.296 58.8483 166.24C58.7203 166.184 58.9283 165.632 59.2483 165.008C59.5683 164.384 59.9443 163.952 60.0483 164Z" fill="#263238"/>
<path d="M67.0641 167.72C67.1681 167.784 66.9921 168.328 66.6641 168.952C66.3361 169.576 65.9841 170.024 65.8641 169.96C65.7441 169.896 65.9361 169.352 66.2641 168.736C66.5921 168.12 66.9601 167.664 67.0641 167.72Z" fill="#263238"/>
<path d="M70.216 169.296C70.32 169.352 70.144 169.904 69.816 170.52C69.488 171.136 69.136 171.592 69.016 171.536C68.896 171.48 69.088 170.928 69.416 170.304C69.744 169.68 70.104 169.24 70.216 169.296Z" fill="#263238"/>
<path d="M76.5604 172.848C76.6724 172.904 76.4884 173.456 76.1604 174.072C75.8324 174.688 75.4884 175.144 75.3604 175.088C75.2324 175.032 75.4324 174.48 75.7604 173.856C76.0884 173.232 76.4564 172.8 76.5604 172.848Z" fill="#263238"/>
<path d="M79.5682 174.4C79.6802 174.456 79.4962 175.008 79.1682 175.624C78.8402 176.24 78.4962 176.696 78.3682 176.64C78.2402 176.584 78.4402 176.024 78.7682 175.408C79.0962 174.792 79.4642 174.4 79.5682 174.4Z" fill="#263238"/>
<path d="M86.056 177.792C86.16 177.856 85.984 178.4 85.656 179.024C85.328 179.648 84.984 180.088 84.856 180.032C84.728 179.976 84.928 179.424 85.256 178.808C85.584 178.192 85.952 177.736 86.056 177.792Z" fill="#263238"/>
<path d="M89.5441 179.64C89.6481 179.704 89.4721 180.248 89.1441 180.872C88.8161 181.496 88.4641 181.944 88.3441 181.88C88.2241 181.816 88.4161 181.272 88.7441 180.656C89.0721 180.04 89.4401 179.584 89.5441 179.64Z" fill="#263238"/>
<path d="M95.8161 182.944C95.9201 183 95.7441 183.552 95.4161 184.168C95.0881 184.784 94.7361 185.24 94.6161 185.184C94.4961 185.128 94.6881 184.576 95.0161 183.952C95.3441 183.328 95.7041 182.888 95.8161 182.944Z" fill="#263238"/>
<path d="M99.4323 184.8C99.5363 184.864 99.3603 185.416 99.0323 186.032C98.7043 186.648 98.3523 187.104 98.2323 187.04C98.1123 186.976 98.3043 186.432 98.6323 185.816C98.9603 185.2 99.3283 184.744 99.4323 184.8Z" fill="#263238"/>
<path d="M154.88 105.472C154.88 105.472 154.88 105.424 154.88 105.336C154.88 105.248 154.88 105.104 154.88 104.936C154.88 104.584 154.88 104.072 154.88 103.408C154.88 102.064 154.88 100.112 154.88 97.6321C154.88 92.6721 154.84 85.6321 154.816 77.1201L154.936 77.2321H126.584L126.712 77.0961C126.712 87.4961 126.712 97.2081 126.712 105.448L126.6 105.328L147.112 105.392H152.888H152.936H147.192L126.6 105.448H126.4V105.328C126.4 97.0881 126.4 87.3601 126.4 76.9761V76.8401H126.536H154.888H155V76.9601C155 85.4721 154.96 92.5681 154.944 97.5521C154.944 100.016 154.944 101.96 154.944 103.296C154.944 103.952 154.944 104.448 154.944 104.8V105.312L154.88 105.472Z" fill="#407BFF"/>
<path d="M154.88 105.472C154.949 105.416 155.021 105.366 155.096 105.32L155.744 104.904L158.256 103.304L167.488 97.6001L167.44 97.6881C167.44 90.2881 167.44 80.4881 167.44 69.7601L167.568 69.8961H167.496H139.544H139.592L130.048 75.2001L127.44 76.6561L126.76 77.0241L126.528 77.1441C126.598 77.0925 126.67 77.0444 126.744 77.0001L127.416 76.6001L129.992 75.1041L139.464 69.6641H167.416H167.624V69.8001C167.624 80.5281 167.624 90.3281 167.624 97.7281V97.7841H167.576L158.296 103.456L155.76 104.992L155.096 105.384L154.88 105.472Z" fill="#407BFF"/>
<path d="M167.536 69.7281C167.576 69.7921 164.776 71.4961 161.28 73.5361C157.784 75.5761 154.88 77.1841 154.88 77.1201C154.88 77.0561 157.64 75.3521 161.144 73.3041C164.648 71.2561 167.504 69.6641 167.536 69.7281Z" fill="#407BFF"/>
<path d="M127.872 104.304C127.872 104.368 127.632 104.6 127.264 104.808C126.896 105.016 126.56 105.144 126.528 105.08C126.496 105.016 126.76 104.792 127.128 104.576C127.496 104.36 127.832 104.24 127.872 104.304Z" fill="#407BFF"/>
<path d="M130.56 102.76C130.6 102.824 130.328 103.056 129.952 103.264C129.576 103.472 129.248 103.6 129.216 103.536C129.184 103.472 129.448 103.248 129.824 103.032C130.2 102.816 130.52 102.696 130.56 102.76Z" fill="#407BFF"/>
<path d="M133.248 101.216C133.288 101.28 133.016 101.512 132.648 101.72C132.28 101.928 131.944 102.056 131.904 101.992C131.864 101.928 132.136 101.704 132.512 101.488C132.888 101.272 133.216 101.152 133.248 101.216Z" fill="#407BFF"/>
<path d="M135.944 99.6721C135.944 99.7361 135.704 99.9601 135.336 100.176C134.968 100.392 134.632 100.512 134.592 100.448C134.552 100.384 134.832 100.16 135.2 99.9441C135.568 99.7281 135.904 99.6081 135.944 99.6721Z" fill="#407BFF"/>
<path d="M138.632 98.128C138.632 98.192 138.4 98.416 138.024 98.632C137.648 98.848 137.32 98.968 137.288 98.904C137.256 98.84 137.52 98.616 137.888 98.4C138.256 98.184 138.592 98.064 138.632 98.128Z" fill="#407BFF"/>
<path d="M139.312 95.416C139.384 95.416 139.44 95.76 139.44 96.216C139.44 96.672 139.376 97.016 139.296 97.016C139.216 97.016 139.168 96.672 139.168 96.216C139.168 95.76 139.24 95.408 139.312 95.416Z" fill="#407BFF"/>
<path d="M139.336 92.312C139.408 92.312 139.472 92.656 139.464 93.112C139.456 93.568 139.4 93.912 139.328 93.912C139.256 93.912 139.192 93.56 139.192 93.112C139.192 92.664 139.264 92.312 139.336 92.312Z" fill="#407BFF"/>
<path d="M139.36 89.208C139.432 89.208 139.496 89.56 139.488 90.008C139.48 90.456 139.424 90.808 139.352 90.808C139.28 90.808 139.216 90.456 139.216 90.008C139.216 89.56 139.288 89.208 139.36 89.208Z" fill="#407BFF"/>
<path d="M139.384 86.104C139.456 86.104 139.52 86.456 139.512 86.904C139.504 87.352 139.448 87.704 139.376 87.704C139.304 87.704 139.24 87.36 139.248 86.904C139.256 86.448 139.312 86.104 139.384 86.104Z" fill="#407BFF"/>
<path d="M139.408 83.0081C139.48 83.0081 139.544 83.3521 139.536 83.8081C139.528 84.2641 139.472 84.6081 139.4 84.6081C139.328 84.6081 139.264 84.2641 139.272 83.8081C139.28 83.3521 139.336 83.0081 139.408 83.0081Z" fill="#407BFF"/>
<path d="M139.432 79.9041C139.512 79.9041 139.568 80.2481 139.56 80.7041C139.552 81.1601 139.496 81.5041 139.424 81.5041C139.352 81.5041 139.288 81.1521 139.296 80.7041C139.304 80.2561 139.36 79.9041 139.432 79.9041Z" fill="#407BFF"/>
<path d="M139.456 76.8C139.536 76.8 139.592 77.152 139.584 77.6C139.576 78.048 139.52 78.4 139.448 78.4C139.376 78.4 139.312 78.048 139.32 77.6C139.328 77.152 139.384 76.8 139.456 76.8Z" fill="#407BFF"/>
<path d="M139.48 73.696C139.56 73.696 139.616 74.048 139.608 74.496C139.6 74.944 139.544 75.296 139.472 75.296C139.4 75.296 139.336 74.952 139.344 74.496C139.352 74.04 139.408 73.696 139.48 73.696Z" fill="#407BFF"/>
<path d="M139.504 70.6001C139.584 70.6001 139.64 70.9441 139.632 71.4001C139.624 71.8561 139.568 72.2001 139.496 72.2001C139.424 72.2001 139.36 71.8561 139.368 71.4001C139.376 70.9441 139.432 70.6001 139.504 70.6001Z" fill="#407BFF"/>
<path d="M165.992 97.6641C165.992 97.6001 166.336 97.5441 166.792 97.5441C167.248 97.5441 167.592 97.6001 167.592 97.6641C167.592 97.7281 167.248 97.7921 166.792 97.7921C166.336 97.7921 165.992 97.7361 165.992 97.6641Z" fill="#407BFF"/>
<path d="M162.888 97.6641C162.888 97.6001 163.232 97.5441 163.688 97.5441C164.144 97.5441 164.488 97.6001 164.488 97.6641C164.488 97.7281 164.136 97.7921 163.688 97.7921C163.24 97.7921 162.888 97.7361 162.888 97.6641Z" fill="#407BFF"/>
<path d="M159.784 97.6641C159.784 97.6001 160.128 97.5441 160.584 97.5441C161.04 97.5441 161.384 97.6001 161.384 97.6641C161.384 97.7281 161.04 97.7921 160.584 97.7921C160.128 97.7921 159.784 97.7361 159.784 97.6641Z" fill="#407BFF"/>
<path d="M156.68 97.6641C156.68 97.6001 157.032 97.5441 157.48 97.5441C157.928 97.5441 158.28 97.6001 158.28 97.6641C158.28 97.7281 157.936 97.7921 157.48 97.7921C157.024 97.7921 156.68 97.7361 156.68 97.6641Z" fill="#407BFF"/>
<path d="M153.6 97.6641C153.6 97.6001 153.944 97.5441 154.4 97.5441C154.856 97.5441 155.2 97.6001 155.2 97.6641C155.2 97.7281 154.856 97.7921 154.4 97.7921C153.944 97.7921 153.6 97.7361 153.6 97.6641Z" fill="#407BFF"/>
<path d="M150.48 97.6641C150.48 97.6001 150.824 97.5441 151.28 97.5441C151.736 97.5441 152.08 97.6001 152.08 97.6641C152.08 97.7281 151.728 97.7921 151.28 97.7921C150.832 97.7921 150.48 97.7361 150.48 97.6641Z" fill="#407BFF"/>
<path d="M147.376 97.6641C147.376 97.6001 147.72 97.5441 148.176 97.5441C148.632 97.5441 148.976 97.6001 148.976 97.6641C148.976 97.7281 148.632 97.7921 148.176 97.7921C147.72 97.7921 147.376 97.7361 147.376 97.6641Z" fill="#407BFF"/>
<path d="M144.272 97.6641C144.272 97.6001 144.624 97.5441 145.072 97.5441C145.52 97.5441 145.872 97.6001 145.872 97.6641C145.872 97.7281 145.528 97.7921 145.072 97.7921C144.616 97.7921 144.272 97.7361 144.272 97.6641Z" fill="#407BFF"/>
<path d="M141.176 97.6641C141.176 97.6001 141.52 97.5441 141.976 97.5441C142.432 97.5441 142.776 97.6001 142.776 97.6641C142.776 97.7281 142.432 97.7921 141.976 97.7921C141.52 97.7921 141.176 97.7361 141.176 97.6641Z" fill="#407BFF"/>
<path d="M139.296 97.6638C139.296 97.5999 139.368 97.5441 139.456 97.5441C139.544 97.5441 139.624 97.5999 139.624 97.6638C139.624 97.7276 139.552 97.7914 139.456 97.7914C139.437 97.7937 139.418 97.7921 139.4 97.7869C139.381 97.7816 139.364 97.7728 139.35 97.7609C139.335 97.7491 139.322 97.7344 139.313 97.7177C139.304 97.701 139.298 97.6827 139.296 97.6638V97.6638Z" fill="#407BFF"/>
<path d="M170.968 88.2161C171.205 88.2391 171.444 88.2391 171.68 88.2161C171.991 88.1473 172.284 88.0124 172.538 87.8205C172.792 87.6286 173.001 87.3843 173.152 87.1041C173.352 86.6801 173.449 86.215 173.435 85.7465C173.421 85.278 173.297 84.8194 173.072 84.4081C173.02 84.295 172.943 84.1956 172.845 84.1178C172.748 84.04 172.634 83.986 172.512 83.9601C172.257 83.9281 171.998 83.9969 171.792 84.1521C171.366 84.5664 171.054 85.0847 170.888 85.6561C170.664 86.2766 170.53 86.9257 170.488 87.5841H170.224C170.224 85.5281 170.184 83.7361 170.184 82.4561C170.184 81.8561 170.184 81.3521 170.184 80.9521C170.163 80.7714 170.163 80.5888 170.184 80.4081C170.221 80.5871 170.24 80.7693 170.24 80.9521C170.24 81.3521 170.24 81.8561 170.304 82.4561C170.352 83.7361 170.4 85.5281 170.44 87.5841H170.176C170.219 86.901 170.359 86.2276 170.592 85.5841C170.702 85.2832 170.831 84.9894 170.976 84.7041C171.121 84.414 171.329 84.1599 171.584 83.9601C171.715 83.8605 171.865 83.788 172.024 83.7468C172.184 83.7056 172.35 83.6965 172.512 83.7201C172.667 83.7575 172.812 83.8285 172.936 83.928C173.061 84.0276 173.162 84.1532 173.232 84.2961C173.469 84.7463 173.593 85.2474 173.593 85.7561C173.593 86.2648 173.469 86.7659 173.232 87.2161C173.067 87.5103 172.837 87.7633 172.56 87.9559C172.283 88.1485 171.966 88.2758 171.632 88.3281C171.452 88.3576 171.269 88.3576 171.088 88.3281C171.042 88.2977 171.002 88.2598 170.968 88.2161V88.2161Z" fill="#407BFF"/>
<path d="M92.3362 220.984C92.3362 220.984 92.4482 220.984 92.6642 221.08C92.8802 221.176 93.2002 221.248 93.6082 221.416C94.803 221.887 95.9453 222.483 97.0162 223.192C98.7222 224.314 100.235 225.706 101.496 227.312C103.189 229.435 104.337 231.94 104.84 234.608C105.412 237.86 104.979 241.208 103.6 244.208C102.841 245.879 101.784 247.397 100.48 248.688C99.7978 249.363 99.0501 249.969 98.2482 250.496C97.8242 250.736 97.4482 250.992 96.9682 251.216C96.4882 251.44 96.0882 251.656 95.6162 251.824C91.8882 253.304 87.6162 253.368 83.3282 252.96C81.1842 252.752 79.0242 252.44 76.8242 252.096C74.5898 251.776 72.387 251.265 70.2402 250.568C68.0693 249.878 66.0627 248.751 64.3442 247.256C63.5205 246.502 62.7948 245.647 62.1842 244.712C61.6051 243.776 61.1404 242.774 60.8002 241.728C60.1556 239.69 59.9404 237.541 60.1682 235.416C60.3933 233.388 60.9842 231.417 61.9122 229.6C63.7393 226.279 66.4979 223.565 69.8482 221.792C72.7348 220.233 75.8878 219.229 79.1442 218.832C81.8218 218.515 84.5264 218.496 87.2082 218.776C89.2278 218.99 91.2337 219.319 93.2162 219.76C94.8162 220.128 96.0962 220.464 96.9442 220.696L97.9042 220.976L98.2322 221.088L97.8962 221.008L96.9282 220.76C96.0802 220.544 94.8242 220.224 93.1922 219.88C91.2084 219.46 89.2026 219.153 87.1842 218.96C84.5223 218.692 81.8388 218.724 79.1842 219.056C75.9629 219.468 72.846 220.474 69.9922 222.024C66.6975 223.781 63.9869 226.462 62.1922 229.736C61.2859 231.527 60.7138 233.468 60.5042 235.464C60.2854 237.546 60.4978 239.651 61.1282 241.648C61.4555 242.67 61.9069 243.648 62.4722 244.56C63.0633 245.472 63.7675 246.305 64.5682 247.04C66.2571 248.502 68.2246 249.607 70.3522 250.288C72.4864 250.978 74.6757 251.484 76.8962 251.8C79.0802 252.144 81.2482 252.456 83.3762 252.664C87.6162 253.072 91.8642 253.016 95.5282 251.56C99.0221 250.211 101.842 247.537 103.376 244.12C104.742 241.168 105.183 237.871 104.64 234.664C104.145 232.035 103.023 229.565 101.368 227.464C100.129 225.866 98.6439 224.476 96.9682 223.344C95.9064 222.63 94.7786 222.019 93.6002 221.52C93.1922 221.352 92.8802 221.248 92.6642 221.16L92.3362 220.984Z" fill="#263238"/>
<path d="M70.9761 241.656C70.7644 241.71 70.5467 241.737 70.3281 241.736L68.5441 241.824H67.9521C67.7265 241.855 67.4977 241.855 67.2721 241.824C67.1295 241.78 67.0092 241.682 66.9361 241.552C66.8757 241.432 66.8403 241.302 66.8321 241.168L66.7841 240.44C66.7281 239.432 66.6641 238.344 66.6001 237.24C66.5361 236.136 66.4641 235.008 66.4561 233.992C66.4427 233.494 66.5584 233 66.7921 232.56C67.0235 232.196 67.3656 231.915 67.7681 231.76C68.3455 231.559 68.9607 231.491 69.5681 231.56C69.7891 231.566 70.0078 231.606 70.2161 231.68C69.9979 231.699 69.7784 231.699 69.5601 231.68C68.9789 231.655 68.3988 231.75 67.8561 231.96C67.5136 232.119 67.2326 232.386 67.0561 232.72C66.856 233.122 66.7598 233.567 66.7761 234.016C66.7761 234.992 66.8961 236.104 66.9441 237.216C66.9921 238.328 67.0561 239.448 67.1121 240.416C67.1601 240.888 67.0561 241.48 67.3841 241.56C67.5831 241.589 67.7852 241.589 67.9841 241.56H70.3841C70.5848 241.567 70.7837 241.599 70.9761 241.656V241.656Z" fill="#263238"/>
<path d="M70.0801 236.416C69.5416 236.58 68.9778 236.645 68.4161 236.608C67.8557 236.669 67.2888 236.625 66.7441 236.48C67.2817 236.312 67.8463 236.246 68.4081 236.288C68.9686 236.227 69.5356 236.27 70.0801 236.416V236.416Z" fill="#263238"/>
<path d="M78.3999 234.928C77.5601 235.046 76.7114 235.089 75.8639 235.056C75.0226 235.123 74.1773 235.123 73.3359 235.056C74.1502 234.799 75.0025 234.683 75.8559 234.712C76.71 234.645 77.5694 234.718 78.3999 234.928Z" fill="#263238"/>
<path d="M78.896 238.752C78.0728 238.94 77.2254 239 76.384 238.928C75.5442 238.961 74.7045 238.862 73.896 238.632C74.7261 238.552 75.5619 238.552 76.392 238.632C77.2286 238.596 78.0667 238.636 78.896 238.752Z" fill="#263238"/>
<path d="M92.344 241.048C92.344 241.048 92.344 240.704 92.344 240.072C92.3056 239.18 92.144 238.296 91.864 237.448C91.7359 236.853 91.4085 236.32 90.936 235.936C90.8009 235.86 90.6465 235.825 90.4917 235.835C90.3369 235.844 90.1883 235.899 90.064 235.992C89.7817 236.202 89.554 236.476 89.4 236.792C88.76 238.366 88.4864 240.065 88.6 241.76H88.288C88.3794 240.534 88.3634 239.303 88.24 238.08C88.1959 237.584 88.1265 237.09 88.032 236.6C87.9529 236.148 87.7145 235.739 87.36 235.448C87.1899 235.326 86.9856 235.26 86.776 235.26C86.5664 235.26 86.3621 235.326 86.192 235.448C85.8328 235.684 85.5713 236.042 85.456 236.456C85.3414 236.872 85.2664 237.298 85.232 237.728C85.184 238.152 85.144 238.568 85.128 238.976C85.084 239.735 85.084 240.497 85.128 241.256H84.88C84.816 239.456 84.76 237.984 84.72 236.904C84.72 236.424 84.72 236.032 84.72 235.72C84.7027 235.582 84.7027 235.442 84.72 235.304C84.7519 235.441 84.7707 235.58 84.776 235.72L84.872 236.904C84.936 237.976 85.032 239.448 85.144 241.24H84.896C84.8553 240.473 84.8553 239.704 84.896 238.936C84.896 238.528 84.944 238.136 84.992 237.672C85.0246 237.223 85.1023 236.778 85.224 236.344C85.3554 235.86 85.6564 235.44 86.072 235.16C86.3113 235.009 86.5893 234.931 86.872 234.936C87.1599 234.937 87.44 235.03 87.672 235.2C88.0904 235.535 88.3744 236.009 88.472 236.536C88.574 237.038 88.6488 237.546 88.696 238.056C88.8035 239.299 88.8035 240.549 88.696 241.792H88.384C88.2783 240.053 88.5796 238.314 89.264 236.712C89.446 236.343 89.7219 236.029 90.064 235.8C90.2279 235.682 90.4223 235.615 90.6238 235.605C90.8253 235.595 91.0254 235.643 91.2 235.744C91.7169 236.162 92.0708 236.748 92.2 237.4C92.4643 238.272 92.5991 239.177 92.6 240.088C92.6 240.408 92.6 240.656 92.56 240.816C92.5009 240.904 92.428 240.983 92.344 241.048V241.048Z" fill="#263238"/>
<path d="M99.3521 240.544C99.3521 240.544 99.2401 240.68 98.9681 240.816C98.581 241.004 98.1583 241.108 97.7281 241.12C97.0781 241.14 96.4371 240.964 95.8881 240.616C95.2149 240.17 94.7352 239.486 94.5453 238.701C94.3554 237.916 94.4693 237.088 94.8641 236.384C95.1954 235.825 95.6854 235.376 96.2721 235.096C96.6593 234.909 97.0823 234.808 97.5121 234.8C97.6695 234.788 97.8277 234.81 97.9761 234.864C97.421 234.91 96.8789 235.056 96.3761 235.296C95.8535 235.582 95.4212 236.009 95.1281 236.528C94.7927 237.173 94.7019 237.918 94.8725 238.626C95.043 239.333 95.4634 239.954 96.0561 240.376C96.5554 240.705 97.1381 240.886 97.7361 240.896C98.2922 240.882 98.8405 240.763 99.3521 240.544V240.544Z" fill="#263238"/>
<path d="M101.24 231.48C100.034 231.553 98.8405 231.76 97.6802 232.096L97.1442 232.272L97.5442 231.864C98.3146 231.161 98.9824 230.353 99.5282 229.464C99.9547 228.721 100.102 227.85 99.9442 227.008C99.8562 226.632 99.6322 226.336 99.3282 226.328C99.0119 226.334 98.7016 226.416 98.4242 226.568C97.9999 226.786 97.6244 227.088 97.3202 227.456C97.1042 227.72 97.0162 227.896 96.9922 227.88C97.0249 227.697 97.1049 227.526 97.2242 227.384C97.5001 226.962 97.8767 226.616 98.3202 226.376C98.6281 226.184 98.9814 226.076 99.3442 226.064C99.4557 226.067 99.5652 226.094 99.6658 226.142C99.7664 226.19 99.8557 226.259 99.9282 226.344C100.072 226.513 100.173 226.713 100.224 226.928C100.422 227.845 100.274 228.802 99.8082 229.616C99.2511 230.543 98.552 231.377 97.7362 232.088L97.6002 231.848C98.4522 231.592 99.3348 231.452 100.224 231.432C100.563 231.388 100.907 231.404 101.24 231.48Z" fill="#263238"/>
<path d="M154.816 222.016L171.864 218.728L204.568 226.232L221.144 229.688L221.384 252.336L184.408 259.144L159.456 251.752L150.024 237.872L154.816 222.016Z" fill="#FFBE9D"/>
<path d="M142.704 224.272L158.792 220.48C158.792 220.48 170.168 255.68 198.24 254.136C221.12 252.896 221.144 229.688 221.144 229.688L237.872 232.64C237.872 232.64 244.888 275.112 237.2 304.904C230.8 329.704 225.12 363.688 225.12 363.688H113.992L142.704 224.272V224.272Z" fill="#407BFF"/>
<path d="M305.72 333.096C305.72 333.096 259.888 252.8 251.64 242.496C242.608 231.216 235.4 232.52 235.4 232.52L230.552 286.608L269.52 341.896L278.808 345.248L305.72 333.096Z" fill="#407BFF"/>
<path d="M144.624 223.824C144.624 223.824 118.576 225.904 109.232 268.624C105.008 287.928 99.6318 310.552 98.1278 325.752C97.0078 336.784 103.816 348.256 114.816 349.664L128.624 352.224C132.272 352.901 136.04 352.154 139.154 350.136C142.267 348.117 144.488 344.982 145.36 341.376L150.024 322.064L137.6 317.888L140.472 260.36L144.624 223.824Z" fill="#407BFF"/>
<path d="M240 262.496C240.061 262.688 240.101 262.887 240.12 263.088C240.192 263.52 240.272 264.096 240.384 264.808C240.44 265.184 240.496 265.608 240.568 266.056C240.64 266.504 240.664 267.008 240.712 267.544C240.824 268.608 240.952 269.824 241.008 271.176C241.201 274.338 241.222 277.508 241.072 280.672C240.885 284.545 240.5 288.406 239.92 292.24C239.32 296.32 238.568 300.176 237.808 303.664C237.048 307.152 236.288 310.28 235.64 312.904C234.992 315.528 234.424 317.632 234.04 319.088C233.848 319.784 233.696 320.344 233.576 320.76C233.527 320.956 233.466 321.148 233.392 321.336C233.408 321.136 233.443 320.938 233.496 320.744C233.592 320.312 233.728 319.752 233.888 319.048L235.36 312.8C235.976 310.168 236.712 307.04 237.44 303.552C238.168 300.064 238.92 296.216 239.52 292.144C240.12 288.072 240.528 284.144 240.696 280.616C240.864 277.088 240.88 273.848 240.696 271.16C240.696 269.816 240.552 268.6 240.464 267.528C240.424 267 240.384 266.504 240.352 266.04C240.32 265.576 240.248 265.176 240.208 264.792C240.128 264.08 240.072 263.504 240.024 263.072C240.003 262.881 239.995 262.688 240 262.496V262.496Z" fill="#263238"/>
<path d="M151.24 324.128C151.184 324.015 151.139 323.897 151.104 323.776C151.024 323.512 150.912 323.176 150.776 322.744L150.264 321.088C150.12 320.335 149.802 319.625 149.336 319.016C148.651 318.359 147.832 317.857 146.936 317.544C145.882 317.146 144.795 316.84 143.688 316.632C141.048 316.143 138.372 315.875 135.688 315.832H135.472V315.624L137.824 300.288C139.336 290.632 140.712 281.888 141.712 275.488C142.232 272.352 142.648 269.8 142.944 267.992C143.088 267.136 143.208 266.456 143.296 265.952C143.296 265.744 143.368 265.568 143.4 265.424C143.405 265.363 143.422 265.303 143.448 265.248C143.46 265.309 143.46 265.371 143.448 265.432C143.448 265.576 143.448 265.752 143.384 265.968C143.32 266.472 143.224 267.152 143.112 268.016C142.848 269.832 142.472 272.392 142.016 275.536C141.04 281.936 139.712 290.664 138.24 300.336C137.376 305.856 136.568 311.08 135.84 315.664L135.656 315.448C138.373 315.518 141.078 315.82 143.744 316.352C144.866 316.576 145.967 316.9 147.032 317.32C147.965 317.662 148.809 318.209 149.504 318.92C149.79 319.241 150.002 319.621 150.128 320.032L150.424 321.096C150.608 321.744 150.76 322.304 150.888 322.768C151.016 323.232 151.096 323.568 151.16 323.816C151.196 323.917 151.223 324.022 151.24 324.128V324.128Z" fill="#263238"/>
<path d="M115.36 330.656C115.385 330.292 115.455 329.932 115.568 329.584C115.819 328.62 116.157 327.68 116.576 326.776C117.94 323.755 120.067 321.14 122.747 319.189C125.428 317.238 128.569 316.018 131.864 315.648C132.851 315.527 133.847 315.495 134.84 315.552C135.206 315.556 135.571 315.602 135.928 315.688C134.591 315.696 133.255 315.778 131.928 315.936C128.708 316.38 125.648 317.613 123.02 319.525C120.392 321.437 118.277 323.969 116.864 326.896C116.296 328.122 115.794 329.377 115.36 330.656V330.656Z" fill="#263238"/>
<path d="M121.384 309.392C121.587 309.34 121.798 309.321 122.008 309.336C122.582 309.325 123.157 309.352 123.728 309.416C125.617 309.606 127.468 310.07 129.224 310.792C130.979 311.519 132.622 312.491 134.104 313.68C134.553 314.035 134.978 314.42 135.376 314.832C135.656 315.128 135.808 315.296 135.784 315.32C135.76 315.344 135.08 314.76 133.928 313.912C130.907 311.698 127.392 310.254 123.688 309.704C122.272 309.496 121.384 309.464 121.384 309.392Z" fill="#263238"/>
<path d="M148.344 254.136C148.292 253.757 148.273 253.374 148.288 252.992C148.288 252.256 148.24 251.2 148.144 249.896C147.904 246.494 147.319 243.124 146.4 239.84C145.467 236.561 144.21 233.382 142.648 230.352C142.04 229.192 141.528 228.264 141.152 227.64C140.941 227.321 140.759 226.983 140.608 226.632C140.863 226.916 141.091 227.224 141.288 227.552C141.712 228.16 142.264 229.064 142.888 230.216C146.217 236.258 148.107 242.988 148.408 249.88C148.464 251.192 148.456 252.28 148.408 252.992C148.424 253.374 148.403 253.758 148.344 254.136V254.136Z" fill="#263238"/>
<g opacity="0.3">
<path d="M238.816 298.328C245.456 287.072 245.6 272.448 239.8 260.728C241.665 273.215 241.264 285.936 238.616 298.28" fill="black"/>
</g>
<g opacity="0.3">
<path d="M179.696 311.056C174.656 312.536 167.696 312.896 162.76 311.056C166.608 316.52 174.024 318.496 180.456 316.72C186.888 314.944 192.824 308.504 193.32 301.84C190.208 306.048 184.744 309.6 179.696 311.056Z" fill="black"/>
</g>
<path d="M198.24 292.88C198.216 293.033 198.176 293.184 198.12 293.328C198.024 293.616 197.912 294.056 197.688 294.584C197.104 296.113 196.379 297.583 195.52 298.976C194.253 301.053 192.723 302.956 190.968 304.64C186.661 308.832 181.101 311.501 175.136 312.24C172.724 312.553 170.283 312.553 167.872 312.24C166.243 312.037 164.636 311.687 163.072 311.192C162.512 311.024 162.104 310.84 161.816 310.736C161.669 310.686 161.528 310.625 161.392 310.552C161.973 310.683 162.547 310.843 163.112 311.032C169.885 312.915 177.109 312.317 183.48 309.344C189.787 306.244 194.77 300.98 197.52 294.512C197.984 293.472 198.2 292.864 198.24 292.88Z" fill="#263238"/>
<path d="M142.048 348.888C142.048 348.888 141.992 348.976 141.848 349.104C141.646 349.304 141.43 349.489 141.2 349.656C140.363 350.28 139.435 350.771 138.448 351.112C136.98 351.6 135.449 351.869 133.904 351.912C132.035 351.971 130.164 351.904 128.304 351.712C124.304 351.368 120.752 350.784 118.184 350.328C116.896 350.096 115.856 349.896 115.144 349.744C114.765 349.693 114.392 349.601 114.032 349.472C114.413 349.478 114.793 349.515 115.168 349.584L118.232 350.032C120.808 350.424 124.376 350.952 128.344 351.296C130.204 351.488 132.074 351.566 133.944 351.528C135.458 351.496 136.96 351.254 138.408 350.808C139.71 350.354 140.938 349.707 142.048 348.888V348.888Z" fill="#263238"/>
<path d="M232.4 138.4L235.688 135.2C240.064 137.104 242.088 142.184 242.832 146.904C243.576 151.624 243.464 156.584 245.472 160.92C247.008 164.256 249.8 167.32 249.472 171.008C249.16 174.488 246.008 177.304 245.992 180.8C245.992 184.168 248.792 186.752 250.424 189.696C253.728 195.656 255.872 220.04 254.144 226.64C239.608 225.384 213.864 223.832 199.32 220.488C203.152 195.432 219.288 160.072 232.4 138.4Z" fill="#263238"/>
<path d="M238.904 160.736C239.912 143.704 227.544 128.12 210.304 126.064C192.008 123.888 175.824 136.992 174.304 154.816L170.016 226.768C169.937 228.159 170.326 229.536 171.12 230.68C175.344 236.856 182.992 241.688 189.832 242.64C196.448 243.56 203.16 241.84 208.792 238.704C209.726 238.176 210.505 237.412 211.051 236.488C211.597 235.564 211.891 234.513 211.904 233.44L212.2 217.336C212.199 217.322 212.2 217.308 212.205 217.295C212.21 217.282 212.218 217.27 212.228 217.26C212.237 217.25 212.249 217.242 212.263 217.237C212.276 217.233 212.29 217.231 212.304 217.232C213.811 217.346 215.326 217.303 216.824 217.104C221.08 216.064 231.936 211.888 235.584 195.952C236.8 190.672 238.016 175.672 238.904 160.736Z" fill="#FFBE9D"/>
<path d="M215.24 184.264C215.24 184.104 217.024 183.928 219.912 183.768C220.64 183.768 221.336 183.648 221.512 183.168C221.619 182.434 221.496 181.685 221.16 181.024L219.368 175.424C216.888 167.488 215.144 160.984 215.464 160.896C215.784 160.808 218.064 167.152 220.544 175.088C221.136 177.048 221.704 178.912 222.248 180.688C222.472 181.488 222.88 182.464 222.44 183.512C222.317 183.756 222.14 183.969 221.923 184.134C221.705 184.299 221.452 184.412 221.184 184.464C220.776 184.545 220.359 184.575 219.944 184.552C217.032 184.536 215.248 184.424 215.24 184.264Z" fill="#263238"/>
<path d="M234.2 166.76C233.888 167.104 232 165.52 229.296 165.44C226.592 165.36 224.576 166.776 224.288 166.408C224.144 166.24 224.472 165.608 225.352 164.952C226.515 164.116 227.921 163.689 229.352 163.736C230.781 163.785 232.153 164.312 233.248 165.232C234.088 165.952 234.4 166.608 234.2 166.76Z" fill="#263238"/>
<path d="M206.728 167.448C206.36 167.792 204.392 166.008 201.44 165.752C198.488 165.496 196.192 166.848 195.896 166.448C195.752 166.264 196.152 165.648 197.152 164.992C198.492 164.198 200.049 163.851 201.6 164C203.151 164.138 204.617 164.775 205.776 165.816C206.648 166.592 206.904 167.296 206.728 167.448Z" fill="#263238"/>
<path d="M212.2 217.224C212.2 217.224 201.176 217.344 187.992 208.288C187.992 208.288 191.4 222.832 212.112 222.376L212.2 217.224Z" fill="#EB996E"/>
<path d="M213.6 190.904C213.097 190.196 212.426 189.625 211.646 189.243C210.866 188.862 210.003 188.682 209.136 188.72C208.509 188.729 207.891 188.864 207.318 189.117C206.745 189.37 206.229 189.736 205.8 190.192C205.39 190.629 205.127 191.184 205.048 191.777C204.97 192.371 205.078 192.975 205.36 193.504C206.056 194.616 207.64 194.976 209.024 194.688C210.394 194.313 211.677 193.671 212.8 192.8C213.133 192.587 213.425 192.316 213.664 192C213.776 191.853 213.842 191.675 213.854 191.49C213.865 191.305 213.821 191.12 213.728 190.96" fill="#EB996E"/>
<path d="M206.76 185.6C207.224 185.6 207.04 188.64 209.536 190.976C212.032 193.312 215.336 193.2 215.336 193.624C215.336 193.824 214.536 194.168 213.176 194.104C211.373 194.004 209.66 193.283 208.328 192.064C207.059 190.904 206.295 189.293 206.2 187.576C206.16 186.304 206.552 185.6 206.76 185.6Z" fill="#263238"/>
<path d="M207.2 156.296C206.864 157.032 204.056 156.464 200.704 156.6C197.352 156.736 194.592 157.4 194.192 156.72C194.024 156.376 194.536 155.704 195.68 155.048C197.201 154.256 198.881 153.815 200.595 153.76C202.31 153.705 204.015 154.035 205.584 154.728C206.744 155.304 207.312 155.944 207.2 156.296Z" fill="#263238"/>
<path d="M234.784 156.896C234.208 157.536 231.928 156.896 229.184 156.896C226.44 156.896 224.136 157.352 223.584 156.688C223.344 156.368 223.704 155.728 224.712 155.088C226.107 154.357 227.665 153.991 229.241 154.024C230.816 154.058 232.357 154.49 233.72 155.28C234.712 155.928 235.04 156.584 234.784 156.896Z" fill="#263238"/>
<path d="M212.8 122.464C211.312 119.936 208.552 118.784 205.464 118.32C192.856 116.408 178.792 124 171.728 134.608C164.664 145.216 164.288 161.048 169.456 172.696L177.32 167.784C193.104 161.272 204.248 146.064 214.4 130.352C215.816 128.216 214.12 124.664 212.8 122.464Z" fill="#263238"/>
<path d="M232.224 129.4C226.952 123.4 223.12 117.4 212.176 121.592C210.576 124.656 213.776 128.632 216.528 130.952C220.528 134.36 223.96 136.656 226.568 139.096C231.832 144.016 237.816 160.568 238.336 169.6C238.336 170.168 239.336 161.848 239.936 161.76C240.672 161.648 243.64 158.016 243.232 153.056C241.824 136.104 237.496 135.392 232.224 129.4Z" fill="#263238"/>
<path d="M205.496 118.32C206.318 118.16 207.168 118.232 207.952 118.528C209.889 119.122 211.615 120.257 212.928 121.8C213.303 122.234 213.635 122.703 213.92 123.2C214.168 123.681 214.362 124.188 214.496 124.712C214.781 125.557 214.998 126.424 215.144 127.304C215.36 128.848 214.992 129.784 214.912 129.76C214.832 129.736 214.952 128.816 214.616 127.4C214.394 126.562 214.127 125.737 213.816 124.928C213.674 124.455 213.486 123.997 213.256 123.56C212.985 123.102 212.675 122.668 212.328 122.264C211.089 120.829 209.522 119.715 207.76 119.016C206.4 118.528 205.48 118.448 205.496 118.32Z" fill="#455A64"/>
<path d="M231.704 172C231.705 172.614 231.471 173.204 231.05 173.651C230.629 174.097 230.052 174.365 229.44 174.4C229.136 174.429 228.829 174.396 228.537 174.304C228.246 174.213 227.975 174.064 227.742 173.866C227.509 173.669 227.318 173.427 227.179 173.154C227.041 172.882 226.958 172.585 226.936 172.28C226.92 171.657 227.148 171.052 227.57 170.594C227.993 170.135 228.577 169.859 229.2 169.824C229.509 169.794 229.82 169.828 230.116 169.923C230.411 170.017 230.685 170.171 230.919 170.375C231.153 170.578 231.343 170.827 231.478 171.107C231.613 171.386 231.69 171.69 231.704 172V172Z" fill="#263238"/>
<path d="M205.352 172.128C205.368 172.751 205.14 173.356 204.717 173.815C204.295 174.273 203.71 174.549 203.088 174.584C202.784 174.614 202.477 174.582 202.186 174.491C201.895 174.401 201.624 174.253 201.391 174.056C201.157 173.859 200.966 173.617 200.827 173.345C200.689 173.073 200.606 172.777 200.584 172.472C200.566 171.847 200.793 171.241 201.216 170.78C201.639 170.32 202.224 170.043 202.848 170.008C203.152 169.978 203.46 170.01 203.752 170.101C204.044 170.193 204.314 170.341 204.548 170.539C204.781 170.737 204.973 170.979 205.111 171.252C205.249 171.525 205.331 171.823 205.352 172.128V172.128Z" fill="#263238"/>
<path d="M132.84 192.152C134.328 189.704 136.04 187.4 138.76 186.384C141.48 185.368 144.568 184.784 146.704 182.8C150.056 179.72 149.904 174.6 149.6 170.136C149.296 165.672 149.216 160.536 152.64 157.536C155.504 155.032 160.056 154.808 162.536 151.936C164.192 150.024 164.52 147.384 165.096 144.944C166.696 138.408 170.272 126.992 189.536 120.424L172.496 185.176C173.768 185.536 176.808 188.432 176.976 190.392C177.128 192.224 176.336 194.08 176.32 195.92C176.32 198.168 178.768 199.512 180.32 201.176C182.288 203.296 182.896 206.352 182.592 209.176C181.961 213.036 180.929 216.819 179.512 220.464C163.704 218.864 140.632 218.352 128.584 208.272C126.4 206.448 129.528 197.6 132.84 192.152Z" fill="#263238"/>
<path d="M177.352 167.784C177.056 167.624 165.416 162.984 164.672 175.264C163.928 187.544 176.384 185.72 176.424 185.376C176.464 185.032 177.352 167.784 177.352 167.784Z" fill="#FFBE9D"/>
<path d="M172.968 180.512C172.912 180.464 172.744 180.648 172.368 180.784C171.847 180.974 171.273 180.954 170.768 180.728C169.504 180.168 168.536 178.048 168.608 175.84C168.648 174.788 168.922 173.758 169.408 172.824C169.547 172.449 169.775 172.113 170.071 171.844C170.368 171.575 170.725 171.382 171.112 171.28C171.361 171.23 171.62 171.269 171.844 171.391C172.067 171.512 172.242 171.708 172.336 171.944C172.48 172.296 172.384 172.536 172.448 172.56C172.512 172.584 172.728 172.368 172.656 171.856C172.61 171.547 172.457 171.264 172.224 171.056C171.903 170.78 171.486 170.642 171.064 170.672C170.555 170.74 170.072 170.937 169.661 171.245C169.251 171.554 168.927 171.962 168.72 172.432C168.135 173.464 167.811 174.623 167.776 175.808C167.704 178.28 168.824 180.664 170.568 181.28C170.89 181.397 171.235 181.439 171.576 181.403C171.917 181.367 172.245 181.254 172.536 181.072C172.928 180.8 173.008 180.536 172.968 180.512Z" fill="#EB996E"/>
<path d="M220.912 170.992C220.977 170.069 221.108 169.152 221.304 168.248C221.674 166.735 222.355 165.316 223.305 164.081C224.254 162.847 225.451 161.824 226.818 161.078C228.185 160.332 229.693 159.879 231.245 159.748C232.797 159.618 234.359 159.813 235.832 160.32C236.846 160.662 237.801 161.159 238.664 161.792C239.585 162.429 240.396 163.213 241.064 164.112C242.497 165.989 243.291 168.276 243.328 170.638C243.366 172.999 242.645 175.31 241.272 177.232C240.637 178.15 239.859 178.961 238.968 179.632C238.127 180.295 237.188 180.821 236.184 181.192C234.327 181.907 232.314 182.111 230.352 181.784C228.641 181.502 227.021 180.819 225.624 179.792C223.578 178.304 222.093 176.171 221.408 173.736C221.187 172.836 221.026 171.922 220.928 171C220.924 171.061 220.924 171.123 220.928 171.184C220.928 171.336 220.928 171.512 220.928 171.728C220.935 172.02 220.964 172.312 221.016 172.6C221.06 172.997 221.134 173.39 221.24 173.776C221.882 176.281 223.364 178.489 225.44 180.032C226.976 181.182 228.779 181.924 230.68 182.19C232.581 182.456 234.518 182.236 236.312 181.552C238.44 180.747 240.281 179.327 241.6 177.472C243.026 175.481 243.775 173.085 243.736 170.636C243.697 168.188 242.873 165.816 241.384 163.872C240.69 162.945 239.853 162.134 238.904 161.472C238.017 160.835 237.037 160.339 236 160C234.186 159.373 232.243 159.215 230.352 159.541C228.461 159.867 226.683 160.666 225.184 161.864C223.154 163.474 221.741 165.734 221.184 168.264C221.092 168.654 221.028 169.049 220.992 169.448C220.952 169.74 220.934 170.034 220.936 170.328C220.936 170.544 220.936 170.72 220.936 170.864C220.926 170.906 220.918 170.949 220.912 170.992V170.992Z" fill="#455A64"/>
<path d="M190 171.488C190.064 170.566 190.193 169.649 190.384 168.744C190.986 166.29 192.394 164.109 194.384 162.552C195.749 161.482 197.347 160.747 199.048 160.408C200.999 160.022 203.018 160.163 204.896 160.816C205.909 161.161 206.864 161.658 207.728 162.288C208.648 162.927 209.458 163.711 210.128 164.608C211.56 166.484 212.353 168.769 212.392 171.129C212.431 173.488 211.713 175.798 210.344 177.72C209.706 178.638 208.926 179.448 208.032 180.12C207.192 180.783 206.252 181.309 205.248 181.68C203.392 182.395 201.378 182.599 199.416 182.272C197.708 181.99 196.09 181.307 194.696 180.28C192.649 178.792 191.161 176.659 190.472 174.224C190.252 173.324 190.094 172.41 190 171.488C189.991 171.549 189.991 171.611 190 171.672C190 171.816 190 172 190 172.216C190 172.509 190.027 172.8 190.08 173.088C190.123 173.486 190.201 173.88 190.312 174.264C190.948 176.772 192.432 178.982 194.512 180.52C195.927 181.583 197.571 182.301 199.312 182.616C201.336 182.965 203.415 182.766 205.336 182.04C207.468 181.242 209.311 179.82 210.624 177.96C212.051 175.969 212.8 173.573 212.761 171.124C212.722 168.676 211.897 166.304 210.408 164.36C209.032 162.547 207.146 161.185 204.992 160.448C203.049 159.784 200.963 159.654 198.952 160.072C196.81 160.512 194.841 161.561 193.28 163.092C191.72 164.623 190.633 166.571 190.152 168.704C190.053 169.092 189.988 169.488 189.96 169.888C189.913 170.179 189.894 170.474 189.904 170.768V171.304C189.922 171.372 189.955 171.434 190 171.488V171.488Z" fill="#455A64"/>
<path d="M212.08 170.648C212.144 170.688 212.464 170.168 213.208 169.568C214.162 168.777 215.356 168.334 216.595 168.312C217.834 168.291 219.043 168.691 220.024 169.448C220.824 170.016 221.128 170.528 221.184 170.48C220.985 169.975 220.647 169.536 220.208 169.216C219.206 168.339 217.913 167.867 216.582 167.892C215.25 167.917 213.976 168.438 213.008 169.352C212.583 169.688 212.262 170.137 212.08 170.648V170.648Z" fill="#455A64"/>
<path d="M174.536 167C175.272 167.234 176.031 167.389 176.8 167.464C178.216 167.688 180.176 167.896 182.336 168.088L187.88 168.584C188.639 168.701 189.407 168.76 190.176 168.76C189.439 168.525 188.681 168.366 187.912 168.288C186.504 168.072 184.544 167.864 182.376 167.672L176.84 167.176C176.078 167.054 175.307 166.995 174.536 167V167Z" fill="#455A64"/>
<path d="M238.768 177.912C239.766 176.758 240.576 175.454 241.168 174.048C241.632 172.592 241.867 171.072 241.864 169.544C242.042 169.974 242.124 170.439 242.104 170.904C242.132 172.025 241.948 173.14 241.56 174.192C241.173 175.244 240.586 176.211 239.832 177.04C239.248 177.664 238.8 177.952 238.768 177.912Z" fill="white"/>
<path d="M240.704 165.272C240.768 165.176 241.224 165.408 241.504 165.952C241.784 166.496 241.664 166.992 241.552 166.984C241.44 166.976 241.344 166.568 241.128 166.128C240.912 165.688 240.632 165.36 240.704 165.272Z" fill="white"/>
<path d="M210.528 175.488C210.464 175.488 210.688 174.848 210.872 173.816C211.344 171.109 210.824 168.323 209.408 165.968C208.872 165.072 208.44 164.576 208.488 164.528C208.959 164.872 209.357 165.307 209.656 165.808C210.459 166.971 211.012 168.289 211.277 169.677C211.543 171.066 211.517 172.494 211.2 173.872C211.087 174.45 210.859 175 210.528 175.488Z" fill="white"/>
<path d="M168 185.208C168 185.208 167.832 185.448 167.592 185.888C167.248 186.513 167.066 187.214 167.064 187.928C167.051 188.445 167.145 188.96 167.341 189.439C167.536 189.918 167.829 190.351 168.2 190.712C168.647 191.157 169.194 191.489 169.794 191.683C170.395 191.876 171.033 191.924 171.656 191.824C172.275 191.697 172.855 191.427 173.352 191.037C173.849 190.647 174.249 190.147 174.52 189.576C174.738 189.107 174.859 188.598 174.874 188.081C174.889 187.564 174.799 187.049 174.608 186.568C174.355 185.902 173.943 185.309 173.408 184.84C173.024 184.512 172.768 184.376 172.784 184.344C173.048 184.412 173.294 184.537 173.504 184.712C174.114 185.156 174.59 185.759 174.88 186.456C175.112 186.972 175.231 187.531 175.231 188.096C175.231 188.661 175.112 189.22 174.88 189.736C174.604 190.379 174.174 190.943 173.627 191.379C173.079 191.814 172.432 192.107 171.744 192.231C171.056 192.354 170.347 192.305 169.683 192.088C169.018 191.87 168.418 191.491 167.936 190.984C167.537 190.584 167.228 190.104 167.028 189.576C166.828 189.048 166.742 188.484 166.776 187.92C166.803 187.167 167.039 186.436 167.456 185.808C167.736 185.368 168 185.192 168 185.208Z" fill="#E0E0E0"/>
<path d="M235.576 194.648C236.253 194.919 236.999 194.964 237.704 194.776C238.457 194.565 239.137 194.146 239.664 193.568C240.313 192.866 240.752 191.996 240.928 191.056C241.111 190.116 240.993 189.142 240.592 188.272C240.262 187.559 239.772 186.932 239.16 186.44C238.569 186.008 237.923 185.655 237.24 185.392C237.443 185.374 237.648 185.401 237.84 185.472C238.381 185.622 238.89 185.869 239.344 186.2C240.023 186.699 240.572 187.355 240.944 188.112C241.401 189.047 241.541 190.106 241.344 191.128C241.148 192.15 240.659 193.092 239.936 193.84C239.349 194.452 238.595 194.878 237.768 195.064C237.213 195.195 236.633 195.164 236.096 194.976C235.72 194.824 235.56 194.664 235.576 194.648Z" fill="#E0E0E0"/>
<path d="M191.2 353.496L203.064 357.008C203.064 357.008 209.608 359.816 212.792 360.544C216.744 361.448 219.44 360.224 219.584 358.024C219.728 355.824 216.656 355.544 216.656 355.544C214.045 354.549 211.505 353.376 209.056 352.032C207.277 350.796 205.822 349.15 204.816 347.232L209.056 347.816C209.056 347.816 217.976 354.216 221.336 356.152C224.696 358.088 225.432 354.688 225.72 353.664C226.008 352.64 215.784 342.264 215.784 342.264C215.784 342.264 225.576 348.552 227.328 350.12C229.08 351.688 231.72 352.2 232.304 351.184C232.888 350.168 234.496 350.16 232.304 345.824C230.112 341.488 212.568 329.824 212.568 329.824L217.368 328.8L222.632 331.144C222.998 332.95 223.745 334.657 224.824 336.152C226.72 338.968 230.088 336.152 230.088 336.152L228 325.352L217.6 318.84C217.6 318.84 206.784 320.16 205.176 320.888C203.568 321.616 201.808 324.68 201.808 324.68L198.888 325.864C194.352 327.176 194.504 331.712 193.04 331.856C191.576 332 148.904 323.68 148.904 323.68L145.04 322.672C138.64 327.528 136.088 335.552 134.96 342.672C134.96 342.672 133.784 346.16 134.96 348.08L191.2 353.496Z" fill="#FFBE9D"/>
<path d="M183.368 345.904C183.317 345.676 183.304 345.441 183.328 345.208C183.325 344.94 183.349 344.672 183.4 344.408C183.437 344.045 183.507 343.686 183.608 343.336C184.209 341.316 185.225 339.444 186.592 337.84C187.919 336.228 189.398 334.746 191.008 333.416C191.646 332.834 192.34 332.317 193.08 331.872C192.488 332.485 191.86 333.062 191.2 333.6C189.661 334.979 188.228 336.471 186.912 338.064C185.584 339.634 184.561 341.438 183.896 343.384C183.424 344.912 183.456 345.912 183.368 345.904Z" fill="#EB996E"/>
<path d="M201.848 324.68C201.848 324.68 201.496 324.864 200.952 325.304C200.194 325.944 199.538 326.697 199.008 327.536C198.625 328.103 198.298 328.706 198.032 329.336C197.786 330.077 197.63 330.845 197.568 331.624C197.458 332.529 197.134 333.396 196.624 334.152C196.045 334.884 195.568 335.691 195.208 336.552C194.66 338.006 194.66 339.61 195.208 341.064L195.264 341.216L195.128 341.304C193.273 342.502 191.93 344.347 191.36 346.48C191.163 347.321 191.043 348.178 191 349.04C190.935 348.817 190.908 348.584 190.92 348.352C190.911 347.703 190.981 347.056 191.128 346.424C191.638 344.183 192.997 342.227 194.92 340.968L194.84 341.208C194.261 339.66 194.261 337.956 194.84 336.408C195.209 335.522 195.705 334.695 196.312 333.952C196.798 333.235 197.106 332.412 197.208 331.552C197.304 330.027 197.862 328.568 198.808 327.368C199.372 326.518 200.082 325.773 200.904 325.168C201.125 325.001 201.367 324.864 201.624 324.76C201.695 324.724 201.77 324.697 201.848 324.68V324.68Z" fill="#EB996E"/>
<path d="M212.12 329.464C211.096 329.597 210.056 329.486 209.083 329.141C208.11 328.797 207.232 328.227 206.52 327.48C206.6 327.384 207.672 328.208 209.216 328.744C210.76 329.28 212.12 329.344 212.12 329.464Z" fill="#EB996E"/>
<path d="M214.856 341.28C213.311 340.846 211.809 340.273 210.368 339.568C208.871 338.993 207.426 338.292 206.048 337.472C207.589 337.917 209.09 338.49 210.536 339.184C212.033 339.759 213.478 340.46 214.856 341.28V341.28Z" fill="#EB996E"/>
<path d="M205.232 347.12C203.679 346.594 202.161 345.968 200.688 345.248C201.523 345.285 202.341 345.498 203.088 345.872C203.885 346.126 204.617 346.552 205.232 347.12Z" fill="#EB996E"/>
<path d="M213.384 342.04C212.695 342.409 212.089 342.916 211.604 343.528C211.118 344.14 210.763 344.845 210.56 345.6C210.504 345.6 210.456 345.32 210.56 344.872C210.673 344.285 210.925 343.734 211.296 343.265C211.666 342.796 212.143 342.422 212.688 342.176C213.08 342.008 213.368 341.992 213.384 342.04Z" fill="#EB996E"/>
<path d="M217.672 335.552C217.72 335.664 216.936 336.064 216.408 336.96C216.139 337.529 215.914 338.117 215.736 338.72C215.622 338.39 215.592 338.037 215.648 337.692C215.704 337.347 215.844 337.022 216.056 336.744C216.664 335.72 217.656 335.44 217.672 335.552Z" fill="#EB996E"/>
<path d="M216.464 323.8C216.424 323.8 216.264 323.616 216.144 323.232C216 322.708 216 322.156 216.144 321.632C216.283 321.115 216.56 320.645 216.944 320.272C217.232 319.992 217.472 319.896 217.496 319.936C217.114 320.495 216.805 321.1 216.576 321.736C216.457 322.417 216.419 323.11 216.464 323.8V323.8Z" fill="#EB996E"/>
<path d="M302.952 327.48C302.952 327.48 302.416 316.984 291.536 314.808C280.656 312.632 261.6 321.88 261.6 321.88L208.208 359.088L209.808 363.688L264 356.136L268.96 358.04L307.024 333.032L342.944 307.064L338.944 303.936C338.944 303.936 328.88 310.872 322.224 313.856C315.568 316.84 305.944 322.072 302.952 327.48Z" fill="#F5F5F5"/>
<path d="M207.384 365.208L252.568 337.136L300.336 329.464C300.336 329.464 302.736 332.936 306.792 332.088L346.072 304.888L346.816 306.528L270.64 360.048C269.521 360.457 268.312 360.552 267.143 360.324C265.974 360.095 264.89 359.552 264.008 358.752L207.384 365.208Z" fill="#455A64"/>
<path d="M300.336 329.464C300.228 329.582 300.104 329.684 299.968 329.768L298.864 330.568C297.904 331.256 296.52 332.256 294.864 333.52C291.472 336.04 286.864 339.632 281.888 343.704C276.912 347.776 272.44 351.56 269.24 354.32L265.424 357.6L264.384 358.48C264.271 358.592 264.145 358.688 264.008 358.768C264.008 358.768 264.104 358.64 264.328 358.424L265.312 357.48C266.176 356.68 267.432 355.512 269.016 354.112C272.168 351.296 276.592 347.488 281.592 343.4C286.592 339.312 291.192 335.76 294.656 333.296C296.368 332.056 297.784 331.096 298.776 330.448L299.92 329.712C300.051 329.617 300.19 329.534 300.336 329.464Z" fill="#263238"/>
<path d="M299.848 323.624C295.52 318.976 288.704 317.32 282.368 317.816C276.032 318.312 270.024 320.672 264.112 323.016L208.84 360.848L209.336 362.272L264.904 324.672C264.904 324.672 277.32 320.672 282.816 319.984C292 318.84 299.848 323.624 299.848 323.624Z" fill="#E0E0E0"/>
<path d="M308.52 328.6L335.096 310.672C335.096 310.672 313.32 322 308.52 328.6Z" fill="#E0E0E0"/>
<path d="M208.84 360.848C208.908 360.779 208.983 360.717 209.064 360.664L209.752 360.176L212.4 358.312L222.192 351.528L254.592 329.28L264 322.88C269.353 320.465 275.002 318.767 280.8 317.832C285.483 317.171 290.258 317.844 294.576 319.776C296.191 320.527 297.678 321.526 298.984 322.736C299.961 323.646 300.792 324.701 301.448 325.864C301.86 326.593 302.183 327.369 302.408 328.176C302.464 328.44 302.512 328.648 302.552 328.808C302.569 328.879 302.583 328.951 302.592 329.024C302.304 327.945 301.879 326.907 301.328 325.936C300.656 324.804 299.82 323.777 298.848 322.888C297.538 321.715 296.06 320.744 294.464 320.008C290.188 318.149 285.479 317.518 280.864 318.184C275.113 319.126 269.508 320.813 264.192 323.2H264.232L254.824 329.6L222.4 351.768L212.528 358.448L209.84 360.24L209.128 360.704C209.037 360.762 208.941 360.81 208.84 360.848V360.848Z" fill="#263238"/>
<path d="M257.224 332.248C257.35 332.144 257.49 332.057 257.64 331.992C257.92 331.84 258.336 331.608 258.872 331.336C259.952 330.776 261.528 329.992 263.512 329.096C268.656 326.685 274.115 325.012 279.728 324.128C285.37 323.276 291.134 323.803 296.528 325.664C298.149 326.249 299.706 326.997 301.176 327.896C301.704 328.2 302.08 328.496 302.344 328.696C302.483 328.782 302.615 328.881 302.736 328.992C302.736 328.992 302.152 328.656 301.096 328.056C299.607 327.22 298.046 326.522 296.432 325.968C291.062 324.207 285.355 323.727 279.768 324.568C274.196 325.449 268.765 327.063 263.616 329.368C261.624 330.232 260.032 330.968 258.928 331.488L257.664 332.072C257.523 332.145 257.376 332.204 257.224 332.248V332.248Z" fill="#263238"/>
<path d="M341.52 305.936C341.52 305.936 341.408 306.04 341.176 306.2L340.144 306.888L336.312 309.352C333.064 311.432 328.592 314.304 323.688 317.536C318.784 320.768 314.4 323.736 311.2 325.896L307.416 328.44L306.376 329.12C306.26 329.205 306.134 329.275 306 329.328C306.099 329.223 306.209 329.13 306.328 329.048L307.328 328.304C308.192 327.664 309.456 326.76 311.032 325.648C314.184 323.432 318.568 320.416 323.48 317.184C328.392 313.952 332.896 311.12 336.176 309.104C337.816 308.096 339.152 307.296 340.08 306.752L341.16 306.128C341.274 306.053 341.394 305.989 341.52 305.936Z" fill="#263238"/>
<path d="M317.344 334.704C316.801 336.01 316.111 337.25 315.288 338.4C314.264 339.616 310.92 341.312 310.656 343.624C310.392 345.936 310.936 351.36 307.32 355.488C304.989 358.056 302.039 359.984 298.752 361.088L284.488 359.696L261.704 350.728C261.194 350.599 260.756 350.275 260.484 349.826C260.211 349.377 260.127 348.839 260.248 348.328C260.389 347.772 260.693 347.272 261.12 346.89C261.548 346.508 262.08 346.262 262.648 346.184L263.192 346.096C263.192 346.096 261.88 345.024 263.76 343.144C265.36 341.544 268.776 342.448 270.536 343.032C272.296 343.616 282.616 347.928 284.464 348.592C286.104 349.176 287.368 349.696 287.368 349.696C287.368 349.696 274.16 340.784 273.976 339.616C273.76 338.216 273.904 337.576 275.256 336.6C276.856 335.44 279.48 336.68 282.024 337.752C283.92 338.552 296.008 344.52 296.008 344.52C296.008 344.52 296.552 343.992 296.008 342.92C295.464 341.848 291.448 336.68 290.816 335.72C290.184 334.76 290.016 334.216 290.648 333.408C291.528 332.264 293.848 331.72 295.984 333.672C297.336 334.92 302.144 338.152 302.144 338.152L324.336 321.96C324.336 321.96 327.096 321.888 326.136 325.736C325.176 329.584 317.344 334.704 317.344 334.704Z" fill="#FFBE9D"/>
<path d="M300.8 348.2C299.912 348.003 299.085 347.594 298.389 347.009C297.692 346.425 297.147 345.68 296.8 344.84C296.904 344.776 297.552 345.768 298.656 346.688C299.76 347.608 300.856 348.08 300.8 348.2Z" fill="#EB996E"/>
<path d="M302.624 338.544C302.624 338.496 302.92 338.408 303.424 338.472C304.053 338.563 304.644 338.826 305.134 339.231C305.624 339.636 305.992 340.167 306.2 340.768C306.352 341.232 306.328 341.568 306.272 341.568C305.937 340.821 305.458 340.147 304.864 339.584C304.192 339.095 303.431 338.742 302.624 338.544Z" fill="#EB996E"/>
<path d="M303.672 343C303.552 343 303.496 341.808 303.024 340.448C302.552 339.088 301.888 338.088 301.984 338.048C302.687 338.647 303.187 339.449 303.416 340.344C303.774 341.182 303.863 342.109 303.672 343V343Z" fill="#EB996E"/>
<path d="M316.8 333.552C316.8 333.592 316.52 333.432 316.232 333.048C315.867 332.538 315.638 331.943 315.568 331.32C315.498 330.697 315.589 330.066 315.832 329.488C316.024 329.056 316.24 328.84 316.28 328.872C315.995 329.638 315.893 330.461 315.984 331.274C316.074 332.087 316.354 332.867 316.8 333.552V333.552Z" fill="#EB996E"/>
<path d="M296.744 353.784C296.23 353.901 295.697 353.901 295.184 353.784C293.94 353.564 292.748 353.119 291.664 352.472C290.585 351.838 289.569 351.101 288.632 350.272C288.214 349.966 287.845 349.599 287.536 349.184C287.996 349.415 288.426 349.703 288.816 350.04C289.791 350.793 290.811 351.485 291.872 352.112C292.921 352.734 294.056 353.2 295.24 353.496C296.152 353.688 296.744 353.72 296.744 353.784Z" fill="#EB996E"/>
<path d="M300.456 351.496C300.568 351.496 300.576 352.296 299.904 352.96C299.232 353.624 298.416 353.592 298.432 353.48C298.448 353.368 299.064 353.208 299.608 352.68C300.152 352.152 300.336 351.48 300.456 351.496Z" fill="#EB996E"/>
<path d="M305.904 347.496C305.952 347.496 305.952 347.712 305.8 348C305.59 348.355 305.274 348.635 304.896 348.8C304.521 348.982 304.099 349.044 303.688 348.976C303.368 348.912 303.208 348.784 303.232 348.736C303.256 348.688 303.968 348.8 304.72 348.424C305.472 348.048 305.792 347.456 305.904 347.496Z" fill="#EB996E"/>
<path d="M286.688 356.576C286.648 356.68 281.344 354.472 274.848 351.632C268.352 348.792 263.12 346.4 263.2 346.304C263.28 346.208 268.552 348.416 275.048 351.256C281.544 354.096 286.736 356.472 286.688 356.576Z" fill="#EB996E"/>
<path d="M380.128 363.712C380.128 363.824 299.472 363.92 200.008 363.92C100.544 363.92 19.8721 363.824 19.8721 363.712C19.8721 363.6 100.512 363.504 200.008 363.504C299.504 363.504 380.128 363.592 380.128 363.712Z" fill="#263238"/>
<path d="M30.1758 278.488L47.5358 363.712H198.216C199.014 363.712 199.779 363.395 200.343 362.831C200.907 362.267 201.224 361.502 201.224 360.704V360.704C201.225 360.308 201.148 359.916 200.997 359.55C200.846 359.184 200.625 358.852 200.346 358.572C200.066 358.291 199.734 358.069 199.369 357.918C199.003 357.766 198.612 357.688 198.216 357.688H167.88L151.784 278.4C151.635 277.66 151.235 276.994 150.652 276.515C150.069 276.035 149.339 275.771 148.584 275.768L33.4398 274.536C32.9485 274.531 32.4623 274.636 32.0167 274.843C31.5711 275.05 31.1774 275.354 30.8646 275.733C30.5517 276.112 30.3274 276.556 30.2083 277.032C30.0891 277.509 30.078 278.006 30.1758 278.488V278.488Z" fill="#E0E0E0"/>
<path d="M30.1759 278.488L30.1279 278.232C30.0954 277.966 30.0954 277.698 30.1279 277.432C30.1848 276.922 30.3588 276.432 30.6363 276C30.9139 275.569 31.2875 275.207 31.7279 274.944C32.0338 274.756 32.3692 274.621 32.7199 274.544C33.111 274.479 33.5078 274.455 33.9039 274.472H36.6159L43.3999 274.528L86.9439 274.936L117.296 275.248L134.304 275.416L143.216 275.512L147.776 275.56C148.168 275.56 148.528 275.56 148.944 275.56C149.35 275.606 149.746 275.722 150.112 275.904C150.85 276.264 151.435 276.877 151.76 277.632C151.91 278.005 152.017 278.395 152.08 278.792L152.312 279.936C152.464 280.736 152.624 281.472 152.784 282.24C153.093 283.781 153.408 285.333 153.728 286.896C154.363 290.016 155.005 293.176 155.656 296.376C156.957 302.776 158.291 309.317 159.656 316C162.368 329.36 165.2 343.256 168.104 357.6L167.904 357.44H197.736C198.129 357.425 198.523 357.449 198.912 357.512C199.713 357.684 200.417 358.156 200.88 358.832C201.348 359.506 201.54 360.333 201.416 361.144C201.343 361.635 201.157 362.103 200.872 362.509C200.588 362.916 200.212 363.251 199.776 363.488C199.336 363.722 198.85 363.854 198.352 363.872H118.28H47.5359H47.4079V363.744C42.0959 337.544 37.8079 316.24 34.7919 301.472C33.3039 294.096 32.1519 288.352 31.3679 284.448C30.9839 282.496 30.6906 281.016 30.4879 280.008C30.2879 279 30.1999 278.488 30.1999 278.488C30.1999 278.488 30.3199 279 30.5279 279.992C30.7359 280.984 31.0559 282.488 31.4559 284.424C32.2559 288.328 33.4479 294.064 34.9679 301.44C37.9919 316.2 42.3519 337.496 47.7199 363.68L47.5599 363.552L118.304 363.512H198.32C198.75 363.495 199.171 363.383 199.552 363.184C199.93 362.976 200.256 362.684 200.504 362.33C200.753 361.976 200.917 361.571 200.984 361.144C201.087 360.435 200.922 359.713 200.52 359.12C200.111 358.536 199.497 358.128 198.8 357.976C198.44 357.922 198.076 357.9 197.712 357.912H167.712V357.752C164.808 343.424 161.984 329.528 159.28 316.152C157.92 309.464 156.587 302.92 155.28 296.52L153.36 287.04C153.048 285.48 152.728 283.928 152.416 282.392C152.264 281.592 152.104 280.848 151.952 280.088L151.72 278.936C151.66 278.565 151.564 278.2 151.432 277.848C151.212 277.343 150.862 276.905 150.418 276.579C149.974 276.253 149.452 276.051 148.904 275.992C148.552 275.992 148.152 275.992 147.776 275.992L143.216 275.936L134.296 275.84L117.296 275.64L86.9359 275.28L43.3919 274.744L36.6159 274.656L33.9039 274.616C33.5134 274.592 33.1215 274.614 32.7359 274.68C32.3922 274.751 32.0624 274.878 31.7599 275.056C31.3284 275.308 30.96 275.655 30.6827 276.071C30.4055 276.487 30.2267 276.961 30.1599 277.456C30.1282 277.8 30.1335 278.146 30.1759 278.488V278.488Z" fill="#263238"/>
<path d="M94.6318 322.464C97.3799 322.464 99.6078 320.236 99.6078 317.488C99.6078 314.74 97.3799 312.512 94.6318 312.512C91.8836 312.512 89.6558 314.74 89.6558 317.488C89.6558 320.236 91.8836 322.464 94.6318 322.464Z" fill="white"/>
<path d="M30.3198 279.2C30.3198 279.2 30.4958 279.2 30.8398 279.2H38.2158L59.7598 279.304L130.84 279.8L141.12 279.888H143.648C144.079 279.872 144.51 279.898 144.936 279.968C145.587 280.1 146.188 280.41 146.674 280.864C147.16 281.317 147.511 281.896 147.688 282.536C147.88 283.336 148.016 284.136 148.184 284.936L151.856 303.448C154.184 315.248 156.288 325.848 158.048 334.8C159.808 343.752 161.248 350.936 162.192 355.936C162.672 358.424 163.04 360.36 163.296 361.688C163.416 362.336 163.512 362.84 163.576 363.192C163.64 363.544 163.656 363.704 163.656 363.704C163.656 363.704 163.608 363.536 163.536 363.2C163.464 362.864 163.352 362.352 163.216 361.704L162.032 356C161.024 351 159.568 343.792 157.76 334.888C155.952 325.984 153.84 315.344 151.48 303.552C150.304 297.656 149.08 291.464 147.784 285.048C147.616 284.248 147.472 283.448 147.296 282.648C147.085 281.888 146.6 281.233 145.936 280.808C145.606 280.597 145.24 280.45 144.856 280.376C144.454 280.31 144.047 280.286 143.64 280.304H141.12L130.84 280.224L59.7598 279.6L38.2158 279.36L32.3598 279.2H30.8318H30.3198Z" fill="#263238"/>
</svg>
